<svg width="21" height="19" viewBox="0 0 21 19" fill="none" xmlns="http://www.w3.org/2000/svg">
<path d="M8.575 5.025C8.575 6.54167 8.18333 7.70833 7.4 8.525C6.63333 9.34167 5.625 9.75 4.375 9.75C3.75833 9.75 3.19167 9.65 2.675 9.45C2.15833 9.23333 1.71667 8.925 1.35 8.525C0.983333 8.125 0.691667 7.63333 0.475 7.05C0.275 6.45 0.175 5.775 0.175 5.025C0.175 3.49167 0.558333 2.325 1.325 1.525C2.10833 0.708333 3.125 0.3 4.375 0.3C5.625 0.3 6.63333 0.708333 7.4 1.525C8.18333 2.325 8.575 3.49167 8.575 5.025ZM6.2 5.025C6.2 4.14167 6.03333 3.48333 5.7 3.05C5.38333 2.6 4.94167 2.375 4.375 2.375C3.80833 2.375 3.36667 2.6 3.05 3.05C2.73333 3.48333 2.575 4.14167 2.575 5.025C2.575 5.90833 2.73333 6.575 3.05 7.025C3.36667 7.45833 3.80833 7.675 4.375 7.675C4.94167 7.675 5.38333 7.45833 5.7 7.025C6.03333 6.575 6.2 5.90833 6.2 5.025ZM13.65 0.675H16.525L6.75 18H3.875L13.65 0.675ZM20.25 13.675C20.25 15.1917 19.8583 16.3583 19.075 17.175C18.3083 17.9917 17.3 18.4 16.05 18.4C15.4333 18.4 14.8667 18.2917 14.35 18.075C13.8333 17.875 13.3917 17.575 13.025 17.175C12.6583 16.775 12.3667 16.2833 12.15 15.7C11.95 15.1 11.85 14.425 11.85 13.675C11.85 12.1417 12.2333 10.975 13 10.175C13.7833 9.35833 14.8 8.95 16.05 8.95C17.3 8.95 18.3083 9.35833 19.075 10.175C19.8583 10.975 20.25 12.1417 20.25 13.675ZM17.875 13.675C17.875 12.7917 17.7083 12.1333 17.375 11.7C17.0583 11.25 16.6167 11.025 16.05 11.025C15.4833 11.025 15.0417 11.25 14.725 11.7C14.4083 12.1333 14.25 12.7917 14.25 13.675C14.25 14.5583 14.4083 15.225 14.725 15.675C15.0417 16.1083 15.4833 16.325 16.05 16.325C16.6167 16.325 17.0583 16.1083 17.375 15.675C17.7083 15.225 17.875 14.5583 17.875 13.675Z" fill="white"/>
</svg>
