<svg width="98" height="40" viewBox="0 0 98 40" fill="none" xmlns="http://www.w3.org/2000/svg">
<path d="M11.88 31.7601C8.5 31.7601 5.92 30.8201 4.14 28.9401C2.38 27.0601 1.5 24.3901 1.5 20.9301C1.5 19.2101 1.77 17.6801 2.31 16.3401C2.85 14.9801 3.59 13.8401 4.53 12.9201C5.47 11.9801 6.59 11.2701 7.89 10.7901C9.19 10.3101 10.6 10.0701 12.12 10.0701C13 10.0701 13.8 10.1401 14.52 10.2801C15.24 10.4001 15.87 10.5501 16.41 10.7301C16.95 10.8901 17.4 11.0601 17.76 11.2401C18.12 11.4201 18.38 11.5601 18.54 11.6601L17.19 15.4401C16.55 15.1001 15.8 14.8101 14.94 14.5701C14.1 14.3301 13.14 14.2101 12.06 14.2101C11.34 14.2101 10.63 14.3301 9.93 14.5701C9.25 14.8101 8.64 15.2001 8.1 15.7401C7.58 16.2601 7.16 16.9401 6.84 17.7801C6.52 18.6201 6.36 19.6401 6.36 20.8401C6.36 21.8001 6.46 22.7001 6.66 23.5401C6.88 24.3601 7.22 25.0701 7.68 25.6701C8.16 26.2701 8.78 26.7501 9.54 27.1101C10.3 27.4501 11.22 27.6201 12.3 27.6201C12.98 27.6201 13.59 27.5801 14.13 27.5001C14.67 27.4201 15.15 27.3301 15.57 27.2301C15.99 27.1101 16.36 26.9801 16.68 26.8401C17 26.7001 17.29 26.5701 17.55 26.4501L18.84 30.2001C18.18 30.6001 17.25 30.9601 16.05 31.2801C14.85 31.6001 13.46 31.7601 11.88 31.7601ZM35.9616 23.4201C35.9616 24.6601 35.7816 25.8001 35.4216 26.8401C35.0616 27.8601 34.5416 28.7401 33.8616 29.4801C33.1816 30.2001 32.3616 30.7601 31.4016 31.1601C30.4616 31.5601 29.4016 31.7601 28.2216 31.7601C27.0616 31.7601 26.0016 31.5601 25.0416 31.1601C24.1016 30.7601 23.2916 30.2001 22.6116 29.4801C21.9316 28.7401 21.4016 27.8601 21.0216 26.8401C20.6416 25.8001 20.4516 24.6601 20.4516 23.4201C20.4516 22.1801 20.6416 21.0501 21.0216 20.0301C21.4216 19.0101 21.9616 18.1401 22.6416 17.4201C23.3416 16.7001 24.1616 16.1401 25.1016 15.7401C26.0616 15.3401 27.1016 15.1401 28.2216 15.1401C29.3616 15.1401 30.4016 15.3401 31.3416 15.7401C32.3016 16.1401 33.1216 16.7001 33.8016 17.4201C34.4816 18.1401 35.0116 19.0101 35.3916 20.0301C35.7716 21.0501 35.9616 22.1801 35.9616 23.4201ZM31.4016 23.4201C31.4016 22.0401 31.1216 20.9601 30.5616 20.1801C30.0216 19.3801 29.2416 18.9801 28.2216 18.9801C27.2016 18.9801 26.4116 19.3801 25.8516 20.1801C25.2916 20.9601 25.0116 22.0401 25.0116 23.4201C25.0116 24.8001 25.2916 25.9001 25.8516 26.7201C26.4116 27.5201 27.2016 27.9201 28.2216 27.9201C29.2416 27.9201 30.0216 27.5201 30.5616 26.7201C31.1216 25.9001 31.4016 24.8001 31.4016 23.4201ZM43.8942 31.3401H39.4242V15.5601H43.8942V31.3401ZM44.3142 11.0001C44.3142 11.8201 44.0442 12.4701 43.5042 12.9501C42.9842 13.4101 42.3642 13.6401 41.6442 13.6401C40.9242 13.6401 40.2942 13.4101 39.7542 12.9501C39.2342 12.4701 38.9742 11.8201 38.9742 11.0001C38.9742 10.1801 39.2342 9.54009 39.7542 9.08009C40.2942 8.60009 40.9242 8.36009 41.6442 8.36009C42.3642 8.36009 42.9842 8.60009 43.5042 9.08009C44.0442 9.54009 44.3142 10.1801 44.3142 11.0001ZM48.0961 16.1001C48.8561 15.8801 49.8361 15.6801 51.0361 15.5001C52.2361 15.3001 53.4961 15.2001 54.8161 15.2001C56.1561 15.2001 57.2661 15.3801 58.1461 15.7401C59.0461 16.0801 59.7561 16.5701 60.2761 17.2101C60.7961 17.8501 61.1661 18.6101 61.3861 19.4901C61.6061 20.3701 61.7161 21.3501 61.7161 22.4301V31.3401H57.2461V22.9701C57.2461 21.5301 57.0561 20.5101 56.6761 19.9101C56.2961 19.3101 55.5861 19.0101 54.5461 19.0101C54.2261 19.0101 53.8861 19.0301 53.5261 19.0701C53.1661 19.0901 52.8461 19.1201 52.5661 19.1601V31.3401H48.0961V16.1001Z" fill="#263238"/>
<path d="M72.0321 20.3601L75.1521 15.5601H79.7721L74.3721 23.1501C75.5721 24.6501 76.6621 26.1101 77.6421 27.5301C78.6221 28.9501 79.4021 30.2201 79.9821 31.3401H75.1821C75.0221 31.0401 74.8221 30.6701 74.5821 30.2301C74.3421 29.7701 74.0721 29.3001 73.7721 28.8201C73.4721 28.3201 73.1521 27.8301 72.8121 27.3501C72.4921 26.8501 72.1721 26.4001 71.8521 26.0001C71.5521 26.3801 71.2421 26.8001 70.9221 27.2601C70.6221 27.7201 70.3321 28.1901 70.0521 28.6701C69.7721 29.1301 69.4921 29.5901 69.2121 30.0501C68.9521 30.5101 68.7221 30.9401 68.5221 31.3401H63.9621C64.2021 30.8401 64.5321 30.2501 64.9521 29.5701C65.3721 28.8901 65.8221 28.1901 66.3021 27.4701C66.8021 26.7301 67.3221 26.0001 67.8621 25.2801C68.4021 24.5401 68.9321 23.8501 69.4521 23.2101C68.5521 21.9501 67.6521 20.6801 66.7521 19.4001C65.8521 18.1001 64.9621 16.8201 64.0821 15.5601H68.9121L72.0321 20.3601ZM97.1159 15.5601C96.2159 18.6001 95.2759 21.4501 94.2959 24.1101C93.3159 26.7701 92.2459 29.3501 91.0859 31.8501C90.6659 32.7501 90.2459 33.5101 89.8259 34.1301C89.4059 34.7701 88.9459 35.2901 88.4459 35.6901C87.9459 36.1101 87.3759 36.4101 86.7359 36.5901C86.1159 36.7901 85.3859 36.8901 84.5459 36.8901C83.8459 36.8901 83.1959 36.8201 82.5959 36.6801C82.0159 36.5601 81.5359 36.4201 81.1559 36.2601L81.9359 32.6901C82.3959 32.8501 82.8059 32.9601 83.1659 33.0201C83.5259 33.0801 83.9059 33.1101 84.3059 33.1101C85.1059 33.1101 85.7159 32.8901 86.1359 32.4501C86.5759 32.0301 86.9459 31.4401 87.2459 30.6801C86.2259 28.6801 85.2059 26.4401 84.1859 23.9601C83.1659 21.4601 82.2059 18.6601 81.3059 15.5601H86.0459C86.2459 16.3401 86.4759 17.1901 86.7359 18.1101C87.0159 19.0101 87.3059 19.9301 87.6059 20.8701C87.9059 21.7901 88.2059 22.6901 88.5059 23.5701C88.8259 24.4501 89.1259 25.2501 89.4059 25.9701C89.6659 25.2501 89.9359 24.4501 90.2159 23.5701C90.4959 22.6901 90.7659 21.7901 91.0259 20.8701C91.3059 19.9301 91.5659 19.0101 91.8059 18.1101C92.0659 17.1901 92.2959 16.3401 92.4959 15.5601H97.1159Z" fill="#7782FF"/>
</svg>
