<svg width="114" height="36" viewBox="0 0 114 36" fill="none" xmlns="http://www.w3.org/2000/svg">
<path d="M32.5342 16.9585C32.5957 16.3608 32.6265 15.6753 32.6265 14.9019C32.6265 13.6714 32.5605 12.1421 32.4287 10.314C34.0723 10.3667 36.854 10.3931 40.7739 10.3931C44.6938 10.3931 47.4668 10.3667 49.0928 10.314C48.9609 12.1421 48.895 13.6714 48.895 14.9019C48.895 15.6753 48.9258 16.3608 48.9873 16.9585H48.3677C48.0688 15.4556 47.7041 14.269 47.2734 13.3989C46.8428 12.52 46.3242 11.8916 45.7178 11.5137C45.1201 11.127 44.3906 10.9336 43.5293 10.9336H42.9097V26.3584C42.9097 27.1055 42.9844 27.6504 43.1338 27.9932C43.292 28.3359 43.5645 28.5688 43.9512 28.6919C44.3467 28.8149 44.9619 28.8809 45.7969 28.8896V29.4302C43.5293 29.3774 41.8198 29.3511 40.6685 29.3511C39.5347 29.3511 37.8867 29.3774 35.7246 29.4302V28.8896C36.5684 28.8809 37.1836 28.8149 37.5703 28.6919C37.9658 28.5688 38.2383 28.3359 38.3877 27.9932C38.5371 27.6504 38.6118 27.1055 38.6118 26.3584V10.9336H38.0186C37.1484 10.9336 36.4102 11.1226 35.8037 11.5005C35.2061 11.8784 34.6919 12.5068 34.2612 13.3857C33.8306 14.2559 33.4614 15.4468 33.1538 16.9585H32.5342ZM57.2007 18.0396C57.2007 17.2925 57.0205 16.7036 56.6602 16.2729C56.3086 15.8423 55.7549 15.627 54.999 15.627C54.6475 15.627 54.2959 15.6841 53.9443 15.7983C53.5928 15.9038 53.3027 16.0664 53.0742 16.2861C53.5752 16.4531 53.9663 16.7168 54.2476 17.0771C54.5288 17.4287 54.6694 17.8726 54.6694 18.4087C54.6694 18.7778 54.5771 19.1118 54.3926 19.4106C54.2168 19.7007 53.9619 19.9336 53.6279 20.1094C53.2939 20.2764 52.9116 20.3599 52.481 20.3599C51.9009 20.3599 51.4351 20.1621 51.0835 19.7666C50.7407 19.3711 50.5693 18.8745 50.5693 18.2769C50.5693 17.3452 51.0703 16.5894 52.0723 16.0093C53.1709 15.4028 54.542 15.0996 56.1855 15.0996C58.0312 15.0996 59.3452 15.5039 60.1274 16.3125C60.5054 16.6904 60.7603 17.1606 60.8921 17.7231C61.0239 18.2856 61.0898 19.0723 61.0898 20.083V27.4263C61.0898 27.8657 61.1294 28.1777 61.2085 28.3623C61.2964 28.5381 61.4458 28.626 61.6567 28.626C61.9468 28.626 62.2808 28.4722 62.6587 28.1646L62.9355 28.626C62.5225 28.9688 62.0742 29.2192 61.5908 29.3774C61.1074 29.5356 60.5273 29.6147 59.8506 29.6147C58.9365 29.6147 58.2773 29.4126 57.873 29.0083C57.4688 28.604 57.2666 28.0767 57.2666 27.4263C56.8271 28.1558 56.2515 28.7051 55.5396 29.0742C54.8276 29.4346 54.0674 29.6147 53.2588 29.6147C52.2305 29.6147 51.4043 29.3467 50.7803 28.8105C50.165 28.2656 49.8574 27.5098 49.8574 26.543C49.8574 25.6025 50.165 24.8247 50.7803 24.2095C51.3955 23.5942 52.3491 23.0493 53.6411 22.5747C53.7817 22.522 54.2388 22.3506 55.0122 22.0605C55.7856 21.7617 56.3438 21.4585 56.6865 21.1509C57.0293 20.8433 57.2007 20.5049 57.2007 20.1357V18.0396ZM57.2007 21.2432C57.0864 21.4365 56.8975 21.6387 56.6338 21.8496C56.3789 22.0518 56.0098 22.3022 55.5264 22.6011C54.9551 22.9966 54.5068 23.4448 54.1816 23.9458C53.8564 24.438 53.6938 25.0532 53.6938 25.7915C53.6938 26.4946 53.8477 27.022 54.1553 27.3735C54.4629 27.7163 54.8672 27.8877 55.3682 27.8877C56.0801 27.8877 56.6909 27.5186 57.2007 26.7803V21.2432ZM69.3428 17.6836C69.6855 16.9189 70.1777 16.2993 70.8193 15.8247C71.4697 15.3413 72.2036 15.0996 73.021 15.0996C73.5659 15.0996 74.0229 15.2183 74.3921 15.4556C74.7612 15.6929 75.0337 16.0005 75.2095 16.3784C75.3853 16.7476 75.4731 17.1475 75.4731 17.5781C75.4731 18.2461 75.2798 18.791 74.8931 19.2129C74.5063 19.6348 73.9966 19.8457 73.3638 19.8457C72.7485 19.8457 72.2607 19.6919 71.9004 19.3843C71.5488 19.0679 71.373 18.646 71.373 18.1187C71.373 17.2573 71.7686 16.5542 72.5596 16.0093C72.4453 15.9829 72.3354 15.9697 72.23 15.9697C72.1069 15.9697 71.9663 15.9917 71.8081 16.0356C71.3511 16.106 70.9336 16.3257 70.5557 16.6948C70.1777 17.0552 69.8789 17.4902 69.6592 18C69.4482 18.5098 69.3428 19.0063 69.3428 19.4897V26.6484C69.3428 27.4834 69.5449 28.0635 69.9492 28.3887C70.3535 28.7051 70.9995 28.8633 71.8872 28.8633V29.4302C69.6372 29.3599 68.2046 29.3247 67.5894 29.3247C67.0181 29.3247 65.7305 29.3599 63.7266 29.4302V28.8633C64.1572 28.8633 64.4956 28.8062 64.7417 28.6919C64.9966 28.5776 65.1768 28.3799 65.2822 28.0986C65.3965 27.8174 65.4536 27.4263 65.4536 26.9253V18.4087C65.4536 17.5737 65.3262 16.9717 65.0713 16.6025C64.8164 16.2246 64.3682 16.0356 63.7266 16.0356V15.4688C64.2979 15.5215 64.856 15.5479 65.4009 15.5479C66.9917 15.5479 68.3057 15.4248 69.3428 15.1787V17.6836ZM86.376 25.9761C87.457 25.9761 88.3315 26.2046 88.9995 26.6616C89.6763 27.1099 90.0146 27.8438 90.0146 28.8633C90.0146 29.7861 89.7246 30.6782 89.1445 31.5396C88.5645 32.4097 87.6855 33.1216 86.5078 33.6753C85.3301 34.229 83.8931 34.5059 82.1968 34.5059C80.8784 34.5059 79.771 34.4004 78.8745 34.1895C77.9868 33.9873 77.3232 33.7104 76.8838 33.3589C76.4443 33.0073 76.2246 32.6074 76.2246 32.1592C76.2246 31.6758 76.4048 31.3154 76.7651 31.0781C77.1343 30.8408 77.7319 30.5903 78.5581 30.3267C79.3843 30.063 79.9688 29.8081 80.3115 29.562H79.6787C78.9316 29.562 78.2417 29.3818 77.6089 29.0215C76.9761 28.6611 76.6597 28.0063 76.6597 27.0571C76.6597 26.5386 76.7651 26.0728 76.9761 25.6597C77.1958 25.2378 77.5518 24.8379 78.0439 24.46C78.5449 24.0732 79.2173 23.6777 80.061 23.2734C79.1382 22.957 78.4175 22.478 77.8989 21.8364C77.3804 21.186 77.1211 20.3687 77.1211 19.3843C77.1211 17.9604 77.6484 16.8926 78.7031 16.1807C79.7666 15.46 81.1729 15.0996 82.9219 15.0996C83.6426 15.0996 84.3105 15.1611 84.9258 15.2842C84.8994 14.8271 84.9346 14.3745 85.0312 13.9263C85.1191 13.1792 85.374 12.5815 85.7959 12.1333C86.2178 11.6763 86.8154 11.4478 87.5889 11.4478C88.1602 11.4478 88.6304 11.6016 88.9995 11.9092C89.3774 12.208 89.5664 12.6035 89.5664 13.0957C89.5664 13.5527 89.3862 13.9307 89.0259 14.2295C88.6743 14.5195 88.2305 14.6646 87.6943 14.6646C87.1494 14.6646 86.7231 14.5371 86.4155 14.2822C86.1079 14.0273 85.8706 13.6494 85.7036 13.1484C85.5103 13.4736 85.374 13.9351 85.2949 14.5327C85.2861 14.6206 85.2817 14.7524 85.2817 14.9282C85.2817 15.1216 85.2861 15.2666 85.2949 15.3633C86.3672 15.6357 87.2065 16.1104 87.813 16.7871C88.4194 17.4551 88.7227 18.3208 88.7227 19.3843C88.7227 20.3423 88.4722 21.1421 87.9712 21.7837C87.479 22.4253 86.7979 22.9043 85.9277 23.2207C85.0576 23.5283 84.0557 23.6821 82.9219 23.6821C82.0693 23.6821 81.2915 23.5942 80.5884 23.4185C80.0698 23.7173 79.6831 23.9897 79.4282 24.2358C79.1821 24.4819 79.0591 24.7632 79.0591 25.0796C79.0591 25.6772 79.4194 25.9761 80.1401 25.9761H86.376ZM82.9219 15.5742C82.333 15.5742 81.8848 15.8643 81.5771 16.4443C81.2695 17.0244 81.1157 18.0044 81.1157 19.3843C81.1157 20.7642 81.2695 21.7441 81.5771 22.3242C81.8848 22.9043 82.333 23.1943 82.9219 23.1943C83.5195 23.1943 83.9678 22.9043 84.2666 22.3242C84.5742 21.7441 84.728 20.7642 84.728 19.3843C84.728 18.0044 84.5742 17.0244 84.2666 16.4443C83.9678 15.8643 83.5195 15.5742 82.9219 15.5742ZM80.8257 29.562C80.5269 29.8433 80.2939 30.1904 80.127 30.6035C79.9688 31.0166 79.8896 31.3901 79.8896 31.7241C79.8896 32.4712 80.1709 33.0425 80.7334 33.438C81.3047 33.8423 82.0342 34.0444 82.9219 34.0444C83.6514 34.0444 84.3281 33.9082 84.9521 33.6357C85.585 33.3721 86.0859 32.9854 86.4551 32.4756C86.833 31.9658 87.022 31.3726 87.022 30.6958C87.022 30.3091 86.9077 30.0234 86.6792 29.8389C86.4507 29.6543 86.042 29.562 85.4531 29.562H80.8257ZM95.4595 21.085C95.4331 21.3486 95.4199 21.7705 95.4199 22.3506C95.4199 23.5459 95.5869 24.5391 95.9209 25.3301C96.2549 26.1123 96.6855 26.688 97.2129 27.0571C97.749 27.4175 98.3203 27.5977 98.9268 27.5977C100.412 27.5977 101.603 26.877 102.5 25.4355L102.974 25.5938C102.746 26.332 102.39 27.022 101.906 27.6636C101.432 28.2964 100.825 28.8149 100.087 29.2192C99.3574 29.6147 98.5225 29.8125 97.582 29.8125C96.3428 29.8125 95.2529 29.5488 94.3125 29.0215C93.3809 28.4941 92.6514 27.6943 92.124 26.6221C91.6055 25.541 91.3462 24.2007 91.3462 22.6011C91.3462 20.9663 91.6274 19.5908 92.1899 18.4746C92.7524 17.3496 93.5303 16.5059 94.5234 15.9434C95.5166 15.3809 96.6636 15.0996 97.9644 15.0996C101.348 15.0996 103.04 17.0947 103.04 21.085H95.4595ZM99.6387 20.5708C99.665 19.1646 99.52 17.9956 99.2036 17.064C98.896 16.1323 98.4258 15.6665 97.793 15.6665C97.1514 15.6665 96.6152 16.0664 96.1846 16.8662C95.7627 17.6572 95.5034 18.8921 95.4067 20.5708H99.6387ZM113.284 15.4951V16.0356H110.093V26.9253C110.093 27.4614 110.19 27.8438 110.383 28.0723C110.577 28.292 110.875 28.4019 111.28 28.4019C112.044 28.4019 112.655 27.8613 113.112 26.7803L113.574 27.0308C112.897 28.8853 111.667 29.8125 109.882 29.8125C108.696 29.8125 107.795 29.5049 107.18 28.8896C106.802 28.5205 106.542 28.0547 106.402 27.4922C106.27 26.9209 106.204 26.1343 106.204 25.1323V16.0356H103.937V15.4951H106.204V11.9092C107.689 11.9092 108.986 11.6191 110.093 11.0391V15.4951H113.284Z" fill="#263238"/>
<rect x="0.769531" y="5.43018" width="26" height="26" rx="5" fill="#FFB6D3"/>
<circle cx="13.7695" cy="18.4302" r="5" fill="#FF5196"/>
<path d="M13.7695 12.8302V11.4302M13.7695 25.4302V24.0302M19.3695 18.4302H20.7695M6.76953 18.4302H8.16953M13.7695 13.3902C12.7727 13.3902 11.7983 13.6858 10.9695 14.2396C10.1406 14.7934 9.49464 15.5805 9.11318 16.5015C8.73171 17.4224 8.6319 18.4358 8.82637 19.4134C9.02084 20.3911 9.50086 21.2891 10.2057 21.994C10.9106 22.6988 11.8086 23.1789 12.7863 23.3733C13.7639 23.5678 14.7773 23.468 15.6983 23.0865C16.6192 22.7051 17.4063 22.0591 17.9601 21.2302C18.5139 20.4014 18.8095 19.427 18.8095 18.4302C18.8095 17.0935 18.2785 15.8115 17.3333 14.8664C16.3882 13.9212 15.1062 13.3902 13.7695 13.3902Z" stroke="white" stroke-width="2" stroke-linecap="square" stroke-linejoin="round"/>
</svg>
