<svg width="159" height="36" viewBox="0 0 159 36" fill="none" xmlns="http://www.w3.org/2000/svg">
<path d="M49.041 17.5121C50.193 17.7821 51.102 18.3401 51.768 19.1861C52.452 20.0321 52.794 21.0131 52.794 22.1291C52.794 23.7671 52.245 25.0451 51.147 25.9631C50.067 26.8811 48.51 27.3401 46.476 27.3401H37.593V8.25109H46.26C48.204 8.25109 49.707 8.67409 50.769 9.52009C51.831 10.3661 52.362 11.5721 52.362 13.1381C52.362 14.2901 52.056 15.2531 51.444 16.0271C50.832 16.7831 50.031 17.2781 49.041 17.5121ZM42.21 16.0541H45.234C46.836 16.0541 47.637 15.3701 47.637 14.0021C47.637 12.6341 46.818 11.9501 45.18 11.9501H42.21V16.0541ZM45.504 23.5871C47.214 23.5871 48.069 22.8851 48.069 21.4811C48.069 20.7971 47.844 20.2661 47.394 19.8881C46.944 19.4921 46.305 19.2941 45.477 19.2941H42.21V23.5871H45.504ZM54.8006 8.03509C54.8006 7.33309 55.0526 6.75709 55.5566 6.30709C56.0606 5.83909 56.7266 5.60509 57.5546 5.60509C58.3826 5.60509 59.0486 5.83909 59.5526 6.30709C60.0566 6.75709 60.3086 7.33309 60.3086 8.03509C60.3086 8.71909 60.0566 9.29509 59.5526 9.76309C59.0486 10.2131 58.3826 10.4381 57.5546 10.4381C56.7266 10.4381 56.0606 10.2131 55.5566 9.76309C55.0526 9.29509 54.8006 8.71909 54.8006 8.03509ZM59.8496 12.2741V27.3401H55.2326V12.2741H59.8496ZM71.5693 23.3711V27.3401H69.4903C67.7263 27.3401 66.3493 26.9081 65.3593 26.0441C64.3873 25.1621 63.9013 23.7131 63.9013 21.6971V16.1621H61.8763V12.2741H63.9013V8.57509H68.5183V12.2741H71.5423V16.1621H68.5183V21.7781C68.5183 22.3721 68.6353 22.7861 68.8693 23.0201C69.1213 23.2541 69.5353 23.3711 70.1113 23.3711H71.5693ZM82.6963 23.3711V27.3401H80.6173C78.8533 27.3401 77.4763 26.9081 76.4863 26.0441C75.5143 25.1621 75.0283 23.7131 75.0283 21.6971V16.1621H73.0033V12.2741H75.0283V8.57509H79.6453V12.2741H82.6693V16.1621H79.6453V21.7781C79.6453 22.3721 79.7623 22.7861 79.9963 23.0201C80.2483 23.2541 80.6623 23.3711 81.2383 23.3711H82.6963ZM92.3382 12.0851C93.8322 12.0851 95.1642 12.4001 96.3342 13.0301C97.5222 13.6421 98.4492 14.5331 99.1152 15.7031C99.7992 16.8731 100.141 18.2411 100.141 19.8071C100.141 21.3731 99.7992 22.7411 99.1152 23.9111C98.4492 25.0811 97.5222 25.9811 96.3342 26.6111C95.1642 27.2231 93.8322 27.5291 92.3382 27.5291C90.8442 27.5291 89.5032 27.2231 88.3152 26.6111C87.1272 25.9811 86.1912 25.0811 85.5072 23.9111C84.8412 22.7411 84.5082 21.3731 84.5082 19.8071C84.5082 18.2411 84.8412 16.8731 85.5072 15.7031C86.1912 14.5331 87.1272 13.6421 88.3152 13.0301C89.5032 12.4001 90.8442 12.0851 92.3382 12.0851ZM92.3382 16.0811C91.4562 16.0811 90.7092 16.4051 90.0972 17.0531C89.5032 17.6831 89.2062 18.6011 89.2062 19.8071C89.2062 21.0131 89.5032 21.9311 90.0972 22.5611C90.7092 23.1911 91.4562 23.5061 92.3382 23.5061C93.2202 23.5061 93.9582 23.1911 94.5522 22.5611C95.1462 21.9311 95.4432 21.0131 95.4432 19.8071C95.4432 18.6011 95.1462 17.6831 94.5522 17.0531C93.9582 16.4051 93.2202 16.0811 92.3382 16.0811ZM107.152 15.1091C107.728 14.1911 108.466 13.4621 109.366 12.9221C110.284 12.3821 111.274 12.1121 112.336 12.1121V17.0531H111.013C109.789 17.0531 108.835 17.3141 108.151 17.8361C107.485 18.3581 107.152 19.2401 107.152 20.4821V27.3401H102.535V12.2741H107.152V15.1091ZM128.579 19.4021C128.579 19.7801 128.534 20.1941 128.444 20.6441H117.995C118.049 21.7781 118.337 22.5971 118.859 23.1011C119.381 23.5871 120.047 23.8301 120.857 23.8301C121.541 23.8301 122.108 23.6591 122.558 23.3171C123.008 22.9751 123.305 22.5341 123.449 21.9941H128.336C128.138 23.0561 127.706 24.0101 127.04 24.8561C126.374 25.6841 125.528 26.3411 124.502 26.8271C123.476 27.2951 122.333 27.5291 121.073 27.5291C119.597 27.5291 118.283 27.2231 117.131 26.6111C115.997 25.9811 115.106 25.0811 114.458 23.9111C113.81 22.7411 113.486 21.3731 113.486 19.8071C113.486 18.2231 113.801 16.8551 114.431 15.7031C115.079 14.5331 115.979 13.6421 117.131 13.0301C118.283 12.4001 119.597 12.0851 121.073 12.0851C122.567 12.0851 123.881 12.3911 125.015 13.0031C126.149 13.6151 127.022 14.4791 127.634 15.5951C128.264 16.6931 128.579 17.9621 128.579 19.4021ZM123.908 18.7001C123.926 17.7101 123.656 16.9721 123.098 16.4861C122.558 15.9821 121.883 15.7301 121.073 15.7301C120.227 15.7301 119.525 15.9821 118.967 16.4861C118.409 16.9901 118.094 17.7281 118.022 18.7001H123.908ZM140.544 12.1121C142.272 12.1121 143.64 12.6881 144.648 13.8401C145.674 14.9921 146.187 16.5761 146.187 18.5921V27.3401H141.57V19.1321C141.57 18.1241 141.3 17.3411 140.76 16.7831C140.238 16.2071 139.536 15.9191 138.654 15.9191C137.718 15.9191 136.971 16.2161 136.413 16.8101C135.873 17.4041 135.603 18.2501 135.603 19.3481V27.3401H130.986V12.2741H135.603V15.0281C136.035 14.1281 136.674 13.4171 137.52 12.8951C138.384 12.3731 139.392 12.1121 140.544 12.1121ZM157.764 23.3711V27.3401H155.685C153.921 27.3401 152.544 26.9081 151.554 26.0441C150.582 25.1621 150.096 23.7131 150.096 21.6971V16.1621H148.071V12.2741H150.096V8.57509H154.713V12.2741H157.737V16.1621H154.713V21.7781C154.713 22.3721 154.83 22.7861 155.064 23.0201C155.316 23.2541 155.73 23.3711 156.306 23.3711H157.764Z" fill="#263238"/>
<rect y="3.34009" width="9" height="9" fill="#3EBA59"/>
<rect y="12.3401" width="9" height="10" fill="#83EBFF"/>
<rect y="22.3401" width="9" height="9" fill="#20C1E1"/>
<rect x="9" y="3.34009" width="10" height="9" fill="#83EBFF"/>
<rect x="9" y="22.3401" width="10" height="9" fill="#83EBFF"/>
<rect x="19" y="3.34009" width="9" height="9" fill="#20C1E1"/>
<rect x="19" y="12.3401" width="9" height="10" fill="#83EBFF"/>
<rect x="19" y="22.3401" width="9" height="9" fill="#3EBA59"/>
<rect x="5" y="8.34009" width="18" height="18" fill="white"/>
</svg>
