<svg width="109" height="40" viewBox="0 0 109 40" fill="none" xmlns="http://www.w3.org/2000/svg">
<path d="M10.0995 31.7002C8.95953 31.7002 7.81953 31.6602 6.67953 31.5802C5.55953 31.5202 4.38953 31.3602 3.16953 31.1002V10.9402C4.12953 10.7602 5.17953 10.6302 6.31953 10.5502C7.45953 10.4502 8.51953 10.4002 9.49953 10.4002C10.8195 10.4002 12.0295 10.5002 13.1295 10.7002C14.2495 10.8802 15.2095 11.2002 16.0095 11.6602C16.8095 12.1202 17.4295 12.7302 17.8695 13.4902C18.3295 14.2302 18.5595 15.1502 18.5595 16.2502C18.5595 17.9102 17.7595 19.2202 16.1595 20.1802C17.4795 20.6802 18.3795 21.3602 18.8595 22.2202C19.3395 23.0802 19.5795 24.0502 19.5795 25.1302C19.5795 27.3102 18.7795 28.9502 17.1795 30.0502C15.5995 31.1502 13.2395 31.7002 10.0995 31.7002ZM7.72953 22.3702V27.7402C8.06953 27.7802 8.43953 27.8102 8.83953 27.8302C9.23953 27.8502 9.67953 27.8602 10.1595 27.8602C11.5595 27.8602 12.6895 27.6602 13.5495 27.2602C14.4095 26.8602 14.8395 26.1202 14.8395 25.0402C14.8395 24.0802 14.4795 23.4002 13.7595 23.0002C13.0395 22.5802 12.0095 22.3702 10.6695 22.3702H7.72953ZM7.72953 18.8002H10.0095C11.4495 18.8002 12.4795 18.6202 13.0995 18.2602C13.7195 17.8802 14.0295 17.2802 14.0295 16.4602C14.0295 15.6202 13.7095 15.0302 13.0695 14.6902C12.4295 14.3502 11.4895 14.1802 10.2495 14.1802C9.84953 14.1802 9.41953 14.1902 8.95953 14.2102C8.49953 14.2102 8.08953 14.2302 7.72953 14.2702V18.8002ZM27.4958 31.4302H23.0258V15.6502H27.4958V31.4302ZM27.9158 11.0902C27.9158 11.9102 27.6458 12.5602 27.1058 13.0402C26.5858 13.5002 25.9658 13.7302 25.2458 13.7302C24.5258 13.7302 23.8958 13.5002 23.3558 13.0402C22.8358 12.5602 22.5758 11.9102 22.5758 11.0902C22.5758 10.2702 22.8358 9.63017 23.3558 9.17017C23.8958 8.69017 24.5258 8.45017 25.2458 8.45017C25.9658 8.45017 26.5858 8.69017 27.1058 9.17017C27.6458 9.63017 27.9158 10.2702 27.9158 11.0902ZM31.5477 11.7202L36.0177 11.0002V15.6502H41.3877V19.3702H36.0177V24.9202C36.0177 25.8602 36.1777 26.6102 36.4977 27.1702C36.8377 27.7302 37.5077 28.0102 38.5077 28.0102C38.9877 28.0102 39.4777 27.9702 39.9777 27.8902C40.4977 27.7902 40.9677 27.6602 41.3877 27.5002L42.0177 30.9802C41.4777 31.2002 40.8777 31.3902 40.2177 31.5502C39.5577 31.7102 38.7477 31.7902 37.7877 31.7902C36.5677 31.7902 35.5577 31.6302 34.7577 31.3102C33.9577 30.9702 33.3177 30.5102 32.8377 29.9302C32.3577 29.3302 32.0177 28.6102 31.8177 27.7702C31.6377 26.9302 31.5477 26.0002 31.5477 24.9802V11.7202Z" fill="#263238"/>
<path d="M82.8995 28.3102C83.3395 28.3102 83.7595 28.3002 84.1595 28.2802C84.5595 28.2602 84.8795 28.2302 85.1195 28.1902V24.8002C84.9395 24.7602 84.6695 24.7202 84.3095 24.6802C83.9495 24.6402 83.6195 24.6202 83.3195 24.6202C82.8995 24.6202 82.4995 24.6502 82.1195 24.7102C81.7595 24.7502 81.4395 24.8402 81.1595 24.9802C80.8795 25.1202 80.6595 25.3102 80.4995 25.5502C80.3395 25.7902 80.2595 26.0902 80.2595 26.4502C80.2595 27.1502 80.4895 27.6402 80.9495 27.9202C81.4295 28.1802 82.0795 28.3102 82.8995 28.3102ZM82.5395 15.2302C83.8595 15.2302 84.9595 15.3802 85.8395 15.6802C86.7195 15.9802 87.4195 16.4102 87.9395 16.9702C88.4795 17.5302 88.8595 18.2102 89.0795 19.0102C89.2995 19.8102 89.4095 20.7002 89.4095 21.6802V30.9802C88.7695 31.1202 87.8795 31.2802 86.7395 31.4602C85.5995 31.6602 84.2195 31.7602 82.5995 31.7602C81.5795 31.7602 80.6495 31.6702 79.8095 31.4902C78.9895 31.3102 78.2795 31.0202 77.6795 30.6202C77.0795 30.2002 76.6195 29.6602 76.2995 29.0002C75.9795 28.3402 75.8195 27.5302 75.8195 26.5702C75.8195 25.6502 75.9995 24.8702 76.3595 24.2302C76.7395 23.5902 77.2395 23.0802 77.8595 22.7002C78.4795 22.3202 79.1895 22.0502 79.9895 21.8902C80.7895 21.7102 81.6195 21.6202 82.4795 21.6202C83.0595 21.6202 83.5695 21.6502 84.0095 21.7102C84.4695 21.7502 84.8395 21.8102 85.1195 21.8902V21.4702C85.1195 20.7102 84.8895 20.1002 84.4295 19.6402C83.9695 19.1802 83.1695 18.9502 82.0295 18.9502C81.2695 18.9502 80.5195 19.0102 79.7795 19.1302C79.0395 19.2302 78.3995 19.3802 77.8595 19.5802L77.2895 15.9802C77.5495 15.9002 77.8695 15.8202 78.2495 15.7402C78.6495 15.6402 79.0795 15.5602 79.5395 15.5002C79.9995 15.4202 80.4795 15.3602 80.9795 15.3202C81.4995 15.2602 82.0195 15.2302 82.5395 15.2302ZM99.7216 20.4502L102.842 15.6502H107.462L102.062 23.2402C103.262 24.7402 104.352 26.2002 105.332 27.6202C106.312 29.0402 107.092 30.3102 107.672 31.4302H102.872C102.712 31.1302 102.512 30.7602 102.272 30.3202C102.032 29.8602 101.762 29.3902 101.462 28.9102C101.162 28.4102 100.842 27.9202 100.502 27.4402C100.182 26.9402 99.8616 26.4902 99.5416 26.0902C99.2416 26.4702 98.9316 26.8902 98.6116 27.3502C98.3116 27.8102 98.0216 28.2802 97.7416 28.7602C97.4616 29.2202 97.1816 29.6802 96.9016 30.1402C96.6416 30.6002 96.4116 31.0302 96.2116 31.4302H91.6516C91.8916 30.9302 92.2216 30.3402 92.6416 29.6602C93.0616 28.9802 93.5116 28.2802 93.9916 27.5602C94.4916 26.8202 95.0116 26.0902 95.5516 25.3702C96.0916 24.6302 96.6216 23.9402 97.1416 23.3002C96.2416 22.0402 95.3416 20.7702 94.4416 19.4902C93.5416 18.1902 92.6516 16.9102 91.7716 15.6502H96.6016L99.7216 20.4502Z" fill="#263238"/>
<path d="M53.2695 11.4302L61.4968 30.1802H45.0423L53.2695 11.4302Z" fill="#FEBA66"/>
<path d="M63.2695 11.4302L71.4968 30.1802H55.0423L63.2695 11.4302Z" fill="#EDA54C"/>
</svg>
