<svg width="149" height="50" viewBox="0 0 149 50" fill="none" xmlns="http://www.w3.org/2000/svg">
<path d="M148.296 8.33342C145.792 7.2774 143.243 6.4548 140.66 5.81007C138.089 5.13199 135.484 4.654 132.868 4.32052C131.565 4.12043 130.24 4.07596 128.938 3.92034C127.624 3.88699 126.322 3.7536 125.008 3.80918C124.357 3.82029 123.694 3.82029 123.043 3.80918C122.392 3.80918 121.729 3.87587 121.078 3.8981C120.427 3.94257 119.764 3.95369 119.113 4.02038L117.159 4.25382C114.543 4.46503 112.006 4.9986 109.468 5.65445C106.897 6.26583 104.46 7.13289 101.866 7.99994C99.2052 8.87811 96.3196 9.41169 93.4226 9.01151C91.9966 8.77807 90.5594 8.27784 89.4253 7.38856C88.2688 6.51039 87.4828 5.30985 87 4.05373C87.7972 5.15422 88.7853 6.05463 89.9194 6.61043C91.0534 7.16624 92.2998 7.39967 93.5461 7.38856C96.0613 7.38856 98.554 6.5882 100.912 5.58775C103.315 4.45391 105.953 3.45346 108.581 2.63087C111.231 1.84163 113.993 1.24136 116.755 0.952342C122.268 0.374305 127.905 0.507698 133.306 1.77493C136.012 2.34185 138.651 3.20891 141.177 4.27605C143.715 5.36543 146.162 6.63266 148.296 8.33342Z" fill="#FEBA66"/>
<path d="M0 40.9601C2.95306 42.1829 5.96226 43.1278 9.02761 43.8503C12.0705 44.6062 15.1695 45.1398 18.2686 45.4733C19.8181 45.6845 21.3788 45.7067 22.9171 45.8512C24.4779 45.8623 26.0274 45.9846 27.5769 45.8957L29.9012 45.8401C30.6759 45.829 31.4507 45.729 32.2254 45.6845C33.0002 45.6178 33.7749 45.5844 34.5385 45.4844L36.8403 45.162C39.9281 44.8285 42.9261 44.1171 45.9128 43.2612C48.9333 42.4386 51.7853 41.3492 54.8057 40.2154C57.8935 39.0926 61.2396 38.359 64.6305 38.7147C66.3036 38.9259 67.9878 39.4595 69.3577 40.4377C70.7388 41.4048 71.7269 42.7832 72.3556 44.2283C71.4125 42.9388 70.2335 41.8828 68.8748 41.2269C67.5162 40.5711 66.0228 40.3043 64.5407 40.3488C61.5427 40.3932 58.5896 41.3826 55.8162 42.6276C52.9979 44.006 49.9438 45.251 46.8672 46.2848C43.7682 47.2741 40.5681 48.0633 37.3231 48.4635C30.8668 49.3083 24.2533 49.3194 17.8756 48.0411C14.6755 47.4631 11.554 46.5627 8.53355 45.4177C5.53558 44.2283 2.60498 42.8388 0 40.9601Z" fill="#FEBA66"/>
<path d="M3.42 30.6243L1.2 28.4043V18.1043L3.42 15.8843H10.38L12.4 17.9043L10.82 19.5043L9.36 18.0843H4.58L3.7 18.9643L3.72 27.5443L4.58 28.4243H9.54L11 26.9843L12.58 28.6043L10.56 30.6243H3.42ZM16.6083 30.6243L14.3883 28.4043V20.1643H16.8083V27.8243L17.6483 28.7443H19.6683L21.7883 26.6643V20.1643H24.2083V30.6243H21.7883V29.1243L20.2683 30.6243H16.6083ZM27.2031 30.6243V20.1643H29.6231V22.0243L31.5031 20.1643H33.8631V22.5843H31.5231L29.6231 24.4843V30.6243H27.2031ZM35.5625 30.6243V20.1643H37.9825V22.0243L39.8625 20.1643H42.2225V22.5843H39.8825L37.9825 24.4843V30.6243H35.5625ZM45.727 30.6243L43.507 28.4043V22.4043L45.727 20.1643H50.527L52.747 22.4043V26.2843H45.927V27.7643L46.807 28.6443H52.567V30.6243H45.727ZM45.927 24.4243H50.327V22.9243L49.447 22.0443H46.807L45.927 22.9243V24.4243ZM55.543 30.6243V20.1643H57.963V22.0243L59.843 20.1643H63.583L65.803 22.4043V30.6243H63.383V22.9643L62.543 22.0443H60.423L57.963 24.4843V30.6243H55.543ZM70.727 30.6243L68.507 28.4043V22.4043L70.727 20.1643H75.727L77.727 22.1243V24.0843H75.307V22.9243L74.427 22.0443H71.807L70.927 22.9243V27.7643L71.807 28.6443H77.647V30.6243H70.727ZM81.6208 34.3643L83.4608 30.0243H82.5408L78.5008 20.1643H81.1608L83.9608 27.6443H84.4408L87.2408 20.1643H89.9008L84.0608 34.3643H81.6208ZM98.4238 30.6243L95.0438 15.8843H97.7038L100.064 28.2443H100.544L102.904 15.8843H105.144L107.504 28.2443H107.984L110.344 15.8843H113.004L109.604 30.6243H105.824L104.024 21.3243L102.224 30.6243H98.4238ZM115.359 30.6243L113.139 28.4043V26.1443L115.359 23.9043H120.419V23.0243L119.539 22.1443H114.519V20.1643H120.619L122.839 22.4043V30.6243H120.419V29.1043L118.879 30.6243H115.359ZM116.439 28.7643L118.319 28.7443L120.419 26.6443V25.7843H116.439L115.559 26.6643V27.8643L116.439 28.7643ZM128.41 30.6243L123.93 20.1643H126.59L129.61 28.2443H130.09L133.11 20.1643H135.77L131.27 30.6243H128.41ZM138.989 30.6243L136.769 28.4043V22.4043L138.989 20.1643H143.789L146.009 22.4043V26.2843H139.189V27.7643L140.069 28.6443H145.829V30.6243H138.989ZM139.189 24.4243H143.589V22.9243L142.709 22.0443H140.069L139.189 22.9243V24.4243Z" fill="#263238"/>
</svg>
