<svg width="129" height="34" viewBox="0 0 129 34" fill="none" xmlns="http://www.w3.org/2000/svg">
<path d="M27.8559 33.4958H6.76057C3.2939 33.4958 0.484375 30.7143 0.484375 27.2823V6.39802C0.484375 2.96601 3.2939 0.18457 6.76057 0.18457H27.8559C31.3225 0.18457 34.1321 2.96601 34.1321 6.39802V27.2823C34.1321 30.7143 31.3225 33.4958 27.8559 33.4958Z" fill="#7782FF"/>
<path d="M23.3708 17.1467C23.9708 17.8915 24.2755 18.759 24.2755 19.7395C24.2755 21.1821 23.7898 22.3135 22.8184 23.115C21.847 23.9164 20.4565 24.3313 18.647 24.3313H10.7422V7.50122H18.4565C20.1898 7.50122 21.5232 7.87837 22.466 8.62323C23.4089 9.36808 23.8851 10.4335 23.8851 11.8101C23.8851 12.8284 23.6089 13.6675 23.066 14.3464C22.5232 15.0252 21.8089 15.459 20.9232 15.6664C21.9613 15.9115 22.7708 16.4018 23.3708 17.1467ZM14.847 14.3841H17.5422C18.9708 14.3841 19.685 13.7807 19.685 12.5738C19.685 11.3669 18.9517 10.7635 17.4946 10.7635H14.847V14.3841ZM20.066 19.1738C20.066 18.5704 19.866 18.099 19.466 17.7595C19.066 17.4201 18.4946 17.2504 17.7612 17.2504H14.8565V21.0313H17.7898C19.3041 21.0218 20.066 20.409 20.066 19.1738Z" fill="white"/>
<path d="M53.6281 24.3313L49.9519 17.9764H49.0186V24.3313H44.9043V7.50122H51.9234C53.2662 7.50122 54.4091 7.72751 55.3329 8.18951C56.2662 8.65151 56.9615 9.28322 57.4281 10.0847C57.8948 10.8861 58.1234 11.8007 58.1234 12.8378C58.1234 14.0635 57.7805 15.1007 57.1043 15.9587C56.4186 16.8167 55.4377 17.4012 54.1329 17.7218L58.171 24.3407H53.6281V24.3313ZM49.0186 15.195H51.5614C52.3805 15.195 52.9805 15.0158 53.3615 14.6575C53.7424 14.2992 53.9424 13.7712 53.9424 13.0735C53.9424 12.4041 53.7424 11.8855 53.3519 11.4989C52.9615 11.1218 52.3614 10.9238 51.5614 10.9238H49.0186V15.195Z" fill="#263238"/>
<path d="M76.7329 21.2671H70.3615L69.3043 24.3408H64.9805L71.2091 7.6333H75.9424L82.171 24.3408H77.7996L76.7329 21.2671ZM75.6757 18.165L73.5614 11.9799L71.4186 18.165H75.6757Z" fill="#263238"/>
<path d="M104.866 24.3313H100.752L93.876 13.9975V24.3313H89.7617V7.50122H93.876L100.752 17.9292V7.50122H104.866V24.3313Z" fill="#263238"/>
<path d="M127.934 20.2771C127.22 21.5499 126.191 22.5493 124.858 23.2659C123.515 23.9825 121.943 24.3408 120.134 24.3408H113.715V7.51074H120.134C121.962 7.51074 123.543 7.8596 124.867 8.55732C126.201 9.25503 127.22 10.2356 127.934 11.5085C128.648 12.7813 129.001 14.2333 129.001 15.8928C129.001 17.5333 128.639 18.9948 127.934 20.2771ZM123.505 19.4285C124.391 18.5893 124.839 17.4013 124.839 15.8833C124.839 14.3559 124.391 13.1773 123.505 12.3382C122.62 11.499 121.372 11.0747 119.762 11.0747H117.82V20.6919H119.762C121.372 20.6919 122.62 20.277 123.505 19.4285Z" fill="#263238"/>
</svg>
