<svg width="93" height="38" viewBox="0 0 93 38" fill="none" xmlns="http://www.w3.org/2000/svg">
<path d="M0.720703 23.3099V0.566406H14.2509V23.2988H0.720703V23.3099ZM12.6116 18.0187L12.9597 15.5064L11.7021 15.3842L11.3203 17.3184C10.5343 17.7074 9.56867 17.8964 8.41215 17.8964C6.84017 17.8964 5.59382 17.4073 4.68432 16.418C3.76359 15.4286 3.31445 14.128 3.31445 12.5051C3.31445 10.9266 3.76359 9.62602 4.65063 8.60334C5.53768 7.58066 6.70546 7.06932 8.15392 7.06932C8.89499 7.06932 9.52376 7.15825 10.029 7.32499C10.5343 7.49173 10.9947 7.71405 11.4326 8.00307L11.8031 9.91504L13.0832 9.79276L12.7126 7.28053C12.1737 6.82477 11.5336 6.45793 10.7926 6.16892C10.0515 5.89101 9.13078 5.7465 8.04163 5.7465C6.75036 5.7465 5.63875 6.05775 4.7068 6.69137C3.77484 7.32499 3.04499 8.1587 2.52849 9.19249C2.01198 10.2374 1.75373 11.3601 1.75373 12.5607C1.75373 14.4615 2.34883 16.0511 3.53904 17.3184C4.72924 18.5856 6.27875 19.2192 8.1988 19.2192C10.0852 19.2192 11.5561 18.819 12.6116 18.0187Z" fill="#263238"/>
<path d="M18.8438 23.3099V0.566406H24.66V23.2988H18.8438V23.3099ZM19.4613 19.0191H24.0537V17.8742H22.4705V5.17959H19.4389V6.32454H21.0445V17.8742H19.4613V19.0191Z" fill="#263238"/>
<path d="M29.252 23.3099V0.566406H39.4698V23.2988H29.252V23.3099ZM31.1046 10.7487L30.779 12.8163L31.958 12.9608L32.3061 11.4157C32.8113 11.1712 33.384 11.0489 34.0577 11.0489C34.8661 11.0489 35.4164 11.249 35.6971 11.6491C35.9778 12.0493 36.1125 12.5718 36.1125 13.2165V14.0169C35.8655 13.9946 35.6072 13.9724 35.3265 13.9613C35.0458 13.9502 34.7763 13.9391 34.5069 13.9391C33.4963 13.9391 32.5306 14.1169 31.6324 14.4726C30.7341 14.8284 30.285 15.5731 30.285 16.6959C30.285 17.6518 30.5882 18.3077 31.2057 18.6634C31.8233 19.0302 32.4296 19.2081 33.0247 19.2081C33.7545 19.2081 34.3833 19.0191 34.8998 18.6412C35.4163 18.2632 35.8206 17.8408 36.1125 17.3517V17.3962C36.135 18.6078 36.6852 19.2081 37.7631 19.2081C38.1785 19.2081 38.5715 19.108 38.942 18.908L38.9196 17.9853C38.7399 18.0631 38.5378 18.1076 38.3133 18.1076C37.7968 18.1076 37.5385 17.7852 37.5385 17.1405V12.883C37.5385 10.8821 36.4606 9.88169 34.3047 9.88169C33.7096 9.88169 33.1482 9.94839 32.6205 10.0818C32.0815 10.2263 31.5762 10.4486 31.1046 10.7487ZM36.1013 15.6621C36.0451 16.3957 35.742 16.9849 35.1918 17.4073C34.6416 17.8408 34.0577 18.052 33.4289 18.052C33.0359 18.052 32.6542 17.9409 32.2949 17.7296C31.9243 17.5184 31.7447 17.1183 31.7447 16.5402C31.7447 15.8399 32.0254 15.3953 32.5643 15.1841C33.1145 14.9729 33.7208 14.8728 34.4058 14.8728C34.7089 14.8728 35.0009 14.8839 35.2816 14.9173C35.5623 14.9395 35.843 14.9617 36.09 14.9729V15.6621H36.1013Z" fill="#263238"/>
<path d="M44.0742 23.3099V0.566406H53.3601V23.2988H44.0742V23.3099ZM52.3832 16.4291C52.3832 15.7176 52.1923 15.1952 51.8106 14.8506C51.4288 14.506 50.9684 14.2725 50.407 14.1392C49.8456 14.0058 49.2954 13.8946 48.7452 13.8057C48.195 13.7167 47.7234 13.5722 47.3417 13.3833C46.9599 13.1943 46.769 12.8608 46.769 12.3828C46.769 11.9271 46.9487 11.5936 47.3192 11.3712C47.6897 11.1489 48.1501 11.0489 48.7227 11.0489C49.3852 11.0489 50.0028 11.1934 50.5755 11.4935L50.8 12.9386L51.979 12.7941L51.7544 10.7043C51.3727 10.4708 50.9123 10.2819 50.3621 10.1262C49.8119 9.97062 49.228 9.88169 48.5993 9.88169C47.7684 9.88169 47.0048 10.0818 46.2974 10.4708C45.5901 10.8599 45.242 11.5269 45.242 12.4829C45.242 13.1832 45.4328 13.6945 45.8146 14.0169C46.1964 14.3504 46.668 14.5727 47.2406 14.7061C47.8133 14.8395 48.3747 14.9506 48.9361 15.0507C49.4975 15.1396 49.9691 15.2952 50.3509 15.4953C50.7326 15.6954 50.9235 16.04 50.9235 16.5402C50.9235 17.0516 50.6765 17.4295 50.1824 17.6741C49.6884 17.9186 49.127 18.0409 48.487 18.0409C47.7683 18.0409 47.0946 17.8964 46.4771 17.5963L46.5332 16.4068L45.3992 16.2846L45.1184 18.3188C45.5114 18.5745 46.0279 18.7857 46.6567 18.9524C47.2855 19.1192 47.9143 19.2081 48.5543 19.2081C49.6435 19.2081 50.553 18.9635 51.2829 18.4633C52.0127 17.9853 52.3832 17.2961 52.3832 16.4291Z" fill="#263238"/>
<path d="M57.9531 23.3099V0.566406H67.2389V23.2988H57.9531V23.3099ZM66.2621 16.4291C66.2621 15.7176 66.0712 15.1952 65.6894 14.8506C65.3077 14.506 64.8473 14.2725 64.2859 14.1392C63.7245 14.0058 63.1743 13.8946 62.6241 13.8057C62.0739 13.7167 61.6023 13.5722 61.2206 13.3833C60.8388 13.1943 60.6479 12.8608 60.6479 12.3828C60.6479 11.9271 60.8275 11.5936 61.1981 11.3712C61.5686 11.1489 62.029 11.0489 62.6016 11.0489C63.2641 11.0489 63.8817 11.1934 64.4543 11.4935L64.6789 12.9386L65.8579 12.7941L65.6333 10.7043C65.2515 10.4708 64.7912 10.2819 64.241 10.1262C63.6908 9.97062 63.1069 9.88169 62.4781 9.88169C61.6472 9.88169 60.8837 10.0818 60.1763 10.4708C59.4689 10.8599 59.1209 11.5269 59.1209 12.4829C59.1209 13.1832 59.3117 13.6945 59.6935 14.0169C60.0753 14.3504 60.5469 14.5727 61.1195 14.7061C61.6922 14.8395 62.2535 14.9506 62.815 15.0507C63.3764 15.1396 63.848 15.2952 64.2297 15.4953C64.6115 15.6954 64.8024 16.04 64.8024 16.5402C64.8024 17.0516 64.5554 17.4295 64.0614 17.6741C63.5673 17.9186 63.0059 18.0409 62.3659 18.0409C61.6473 18.0409 60.9735 17.8964 60.3559 17.5963L60.4121 16.4068L59.2781 16.2846L58.9974 18.3188C59.3903 18.5745 59.9068 18.7857 60.5356 18.9524C61.1644 19.1192 61.7932 19.2081 62.4332 19.2081C63.5224 19.2081 64.4319 18.9635 65.1617 18.4633C65.8916 17.9853 66.2621 17.2961 66.2621 16.4291Z" fill="#263238"/>
<path d="M71.8301 23.3099V0.566406H77.9496V23.2988H71.8301V23.3099ZM72.7283 19.0191H77.3208V17.8742H75.7375V10.0707H72.6947V11.2156H74.3227V17.8742H72.7396V19.0191H72.7283ZM74.1656 5.92436V7.75852H75.7151V5.92436H74.1656Z" fill="#263238"/>
<path d="M82.541 23.3099V0.566406H92.321V23.2988H82.541V23.3099ZM91.4451 16.0067L90.2213 15.7399C89.9518 17.2517 89.1321 18.0076 87.7847 18.0076C86.8864 18.0076 86.2015 17.7074 85.7299 17.1071C85.2583 16.5069 85.0225 15.6621 85.0225 14.5949C85.0225 13.6278 85.2358 12.8052 85.6513 12.116C86.0667 11.4268 86.7629 11.0933 87.7285 11.0933C88.4696 11.0933 89.1209 11.2601 89.6598 11.5936L90.0079 13.1054L91.1869 12.9608L90.8388 10.8043C90.3784 10.4597 89.8956 10.2152 89.3904 10.0818C88.8851 9.94839 88.3349 9.88169 87.7398 9.88169C86.3362 9.88169 85.2695 10.3708 84.5733 11.349C83.866 12.3272 83.5179 13.4388 83.5179 14.6727C83.5179 16.1067 83.8884 17.2294 84.6407 18.0187C85.3818 18.819 86.3812 19.2192 87.6275 19.2192C88.8739 19.2192 89.7946 18.8746 90.3785 18.1965C90.9623 17.5073 91.3216 16.7848 91.4451 16.0067Z" fill="#263238"/>
<path d="M6.57137 35.7263C6.31312 36.1932 5.93134 36.56 5.43729 36.8157C4.93202 37.0714 4.33691 37.2048 3.64075 37.2048H1.63086V30.9353H3.64075C4.33691 30.9353 4.94325 31.0576 5.43729 31.3132C5.93134 31.5689 6.31312 31.9246 6.57137 32.4026C6.82962 32.8806 6.95313 33.4253 6.95313 34.07C6.95313 34.7037 6.82962 35.2595 6.57137 35.7263ZM5.45974 35.8486C5.89764 35.4262 6.111 34.837 6.111 34.07C6.111 33.303 5.89764 32.7139 5.45974 32.2915C5.02183 31.8691 4.39304 31.6578 3.56214 31.6578H2.4281V36.4822H3.56214C4.39304 36.4822 5.02183 36.271 5.45974 35.8486Z" fill="#FF5196"/>
<path d="M11.1185 31.5912V33.7366H13.5214V34.3591H11.1185V36.5489H13.7909V37.2048H10.2988V30.9353H13.7909V31.5912H11.1185Z" fill="#FF5196"/>
<path d="M20.8879 36.4045C20.742 36.6601 20.5286 36.8713 20.2367 37.027C19.9447 37.1826 19.5854 37.2715 19.1475 37.2715C18.7321 37.2715 18.3503 37.1937 18.0247 37.0492C17.699 36.8936 17.4408 36.6935 17.2387 36.4267C17.0478 36.1599 16.9355 35.8598 16.9018 35.5263H17.7776C17.8001 35.7042 17.8562 35.882 17.9573 36.0488C18.0584 36.2155 18.2155 36.36 18.4064 36.4712C18.5973 36.5823 18.8331 36.6379 19.1138 36.6379C19.4731 36.6379 19.7539 36.549 19.9447 36.3489C20.1356 36.1488 20.2367 35.9154 20.2367 35.6152C20.2367 35.3596 20.1693 35.1483 20.0346 34.9927C19.8998 34.8371 19.7314 34.7037 19.5405 34.6148C19.3496 34.5258 19.0689 34.4258 18.7321 34.3146C18.3278 34.1813 18.0135 34.059 17.7664 33.9478C17.5194 33.8366 17.3173 33.6588 17.1489 33.4254C16.9804 33.1919 16.8906 32.8918 16.8906 32.5138C16.8906 32.1915 16.9692 31.9024 17.1264 31.6468C17.2836 31.4022 17.5082 31.2021 17.8113 31.0687C18.1033 30.9353 18.4626 30.8687 18.8556 30.8687C19.4732 30.8687 19.9784 31.0132 20.3377 31.3133C20.7082 31.6134 20.9104 31.9914 20.9777 32.4583H20.1019C20.057 32.2137 19.9223 31.9914 19.7202 31.8024C19.5068 31.6134 19.2261 31.5134 18.8668 31.5134C18.5412 31.5134 18.2717 31.6023 18.0808 31.7691C17.8787 31.9358 17.7889 32.1804 17.7889 32.4805C17.7889 32.725 17.8563 32.9251 17.9798 33.0696C18.1145 33.2253 18.2717 33.3364 18.4626 33.4254C18.6535 33.5143 18.9229 33.6032 19.2486 33.7144C19.6528 33.8478 19.9784 33.97 20.2367 34.0923C20.4837 34.2146 20.697 34.3925 20.8654 34.6259C21.0339 34.8593 21.1237 35.1817 21.1237 35.5819C21.1013 35.8709 21.0339 36.1488 20.8879 36.4045Z" fill="#FF5196"/>
<path d="M25.2669 30.9353V37.2048H24.4473V30.9353H25.2669Z" fill="#FF5196"/>
<path d="M33.5523 31.4133C34.0576 31.7802 34.3944 32.2693 34.5629 32.8918H33.6983C33.5523 32.5138 33.2941 32.2026 32.946 31.9803C32.5979 31.7468 32.1825 31.6357 31.6996 31.6357C31.273 31.6357 30.8799 31.7357 30.5431 31.9358C30.2062 32.1359 29.9368 32.4138 29.7347 32.7806C29.5438 33.1475 29.4427 33.581 29.4427 34.0812C29.4427 34.5925 29.5438 35.0372 29.7347 35.404C29.9256 35.7709 30.2063 36.0599 30.5543 36.26C30.9024 36.4601 31.3067 36.5601 31.767 36.5601C32.16 36.5601 32.5081 36.4712 32.8337 36.3155C33.1593 36.1488 33.4176 35.9042 33.6309 35.593C33.8442 35.2817 33.9565 34.9038 34.0014 34.4814H31.5087V33.8811H34.6864V34.6259C34.6302 35.1261 34.473 35.5708 34.2148 35.9821C33.9565 36.3934 33.6085 36.7046 33.1706 36.938C32.7327 37.1715 32.2386 37.2938 31.6772 37.2938C31.0708 37.2938 30.5319 37.1604 30.0603 36.8936C29.5887 36.6268 29.2294 36.2488 28.9711 35.7597C28.7129 35.2817 28.5781 34.7259 28.5781 34.1034C28.5781 33.4809 28.7129 32.9251 28.9711 32.4471C29.2294 31.9692 29.5999 31.5801 30.0603 31.3133C30.5206 31.0465 31.0596 30.902 31.6659 30.902C32.4295 30.8798 33.047 31.0576 33.5523 31.4133Z" fill="#FF5196"/>
<path d="M42.9742 37.2048H42.1545L38.8646 32.247V37.2048H38.0449V30.9353H38.8646L42.1545 35.8931V30.9353H42.9742V37.2048Z" fill="#FF5196"/>
<path d="M54.7864 36.4045C54.6404 36.6601 54.427 36.8713 54.1351 37.027C53.8432 37.1826 53.4839 37.2715 53.046 37.2715C52.6305 37.2715 52.2488 37.1937 51.9231 37.0492C51.5975 36.8936 51.3393 36.6935 51.1371 36.4267C50.9463 36.1599 50.834 35.8598 50.8003 35.5263H51.6761C51.6985 35.7042 51.7547 35.882 51.8558 36.0488C51.9568 36.2155 52.114 36.36 52.3049 36.4712C52.4957 36.5823 52.7315 36.6379 53.0123 36.6379C53.3716 36.6379 53.6523 36.549 53.8431 36.3489C54.034 36.1488 54.1351 35.9154 54.1351 35.6152C54.1351 35.3596 54.0677 35.1483 53.933 34.9927C53.7983 34.8371 53.6298 34.7037 53.4389 34.6148C53.2481 34.5258 52.9674 34.4258 52.6305 34.3146C52.2263 34.1813 51.9119 34.059 51.6648 33.9478C51.4178 33.8366 51.2157 33.6588 51.0473 33.4254C50.8789 33.1919 50.7891 32.8918 50.7891 32.5138C50.7891 32.1915 50.8676 31.9024 51.0248 31.6468C51.182 31.4022 51.4066 31.2021 51.7098 31.0687C52.0017 30.9353 52.361 30.8687 52.754 30.8687C53.3716 30.8687 53.8769 31.0132 54.2362 31.3133C54.6067 31.6134 54.8088 31.9914 54.8762 32.4583H54.0004C53.9554 32.2137 53.8207 31.9914 53.6186 31.8024C53.4052 31.6134 53.1246 31.5134 52.7653 31.5134C52.4396 31.5134 52.1701 31.6023 51.9793 31.7691C51.7772 31.9358 51.6873 32.1804 51.6873 32.4805C51.6873 32.725 51.7547 32.9251 51.8782 33.0696C52.0129 33.2253 52.1701 33.3364 52.361 33.4254C52.5519 33.5143 52.8214 33.6032 53.147 33.7144C53.5512 33.8478 53.8768 33.97 54.1351 34.0923C54.3821 34.2146 54.5955 34.3925 54.7639 34.6259C54.9323 34.8593 55.0221 35.1817 55.0221 35.5819C54.9997 35.8709 54.9323 36.1488 54.7864 36.4045Z" fill="#FF5196"/>
<path d="M62.2297 30.9353V31.5912H60.4444V37.2048H59.6135V31.5912H57.8281V30.9353H62.2297Z" fill="#FF5196"/>
<path d="M66.0491 30.9353V34.6925C66.0491 35.3039 66.1839 35.7597 66.4646 36.0598C66.7453 36.3488 67.1158 36.5045 67.6099 36.5045C68.0927 36.5045 68.4632 36.36 68.7327 36.0598C69.0022 35.7597 69.1369 35.315 69.1369 34.7037V30.9464H69.9566V34.7037C69.9566 35.5596 69.7433 36.2043 69.3166 36.6267C68.8899 37.0603 68.3173 37.2715 67.5986 37.2715C66.8913 37.2715 66.3187 37.0603 65.892 36.6267C65.4653 36.1932 65.252 35.5596 65.252 34.7037V30.9464H66.0491V30.9353Z" fill="#FF5196"/>
<path d="M78.4111 35.7263C78.1529 36.1932 77.7711 36.56 77.2771 36.8157C76.7718 37.0714 76.1767 37.2048 75.4806 37.2048H73.4707V30.9353H75.4806C76.1767 30.9353 76.783 31.0576 77.2771 31.3132C77.7711 31.5689 78.1529 31.9246 78.4111 32.4026C78.6694 32.8806 78.7929 33.4253 78.7929 34.07C78.7929 34.7037 78.6694 35.2595 78.4111 35.7263ZM77.3108 35.8486C77.7487 35.4262 77.9621 34.837 77.9621 34.07C77.9621 33.303 77.7487 32.7139 77.3108 32.2915C76.8729 31.8691 76.2441 31.6578 75.4132 31.6578H74.2791V36.4822H75.4132C76.2329 36.4822 76.8729 36.271 77.3108 35.8486Z" fill="#FF5196"/>
<path d="M82.9681 30.9353V37.2048H82.1484V30.9353H82.9681Z" fill="#FF5196"/>
<path d="M91.0094 31.269C91.481 31.5469 91.8515 31.9248 92.121 32.4139C92.3905 32.903 92.5252 33.4588 92.5252 34.0702C92.5252 34.6816 92.3905 35.2374 92.121 35.7265C91.8515 36.2156 91.481 36.5936 91.0094 36.8715C90.5378 37.1494 90.01 37.2828 89.4261 37.2828C88.8423 37.2828 88.3033 37.1494 87.8317 36.8715C87.3601 36.5936 86.9784 36.2156 86.7089 35.7265C86.4394 35.2374 86.3047 34.6816 86.3047 34.0702C86.3047 33.4588 86.4394 32.903 86.7089 32.4139C86.9784 31.9248 87.3489 31.5469 87.8317 31.269C88.3145 30.9911 88.8423 30.8577 89.4261 30.8577C90.01 30.8577 90.5378 30.9911 91.0094 31.269ZM88.2472 31.9137C87.8991 32.1138 87.6296 32.3917 87.4388 32.7696C87.2479 33.1365 87.1468 33.57 87.1468 34.0702C87.1468 34.5593 87.2479 34.9928 87.4388 35.3708C87.6296 35.7487 87.8991 36.0266 88.2472 36.2267C88.5953 36.4268 88.977 36.5269 89.4149 36.5269C89.8416 36.5269 90.2346 36.4268 90.5827 36.2267C90.9308 36.0266 91.2002 35.7376 91.3911 35.3708C91.582 35.004 91.6831 34.5704 91.6831 34.0813C91.6831 33.5811 91.582 33.1476 91.3911 32.7807C91.2002 32.4139 90.9308 32.1249 90.5827 31.9248C90.2346 31.7247 89.8528 31.6247 89.4149 31.6247C88.9882 31.6136 88.5953 31.7136 88.2472 31.9137Z" fill="#FF5196"/>
</svg>
