<svg width="81" height="80" viewBox="0 0 81 80" fill="none" xmlns="http://www.w3.org/2000/svg">
<g style="mix-blend-mode:multiply">
<path d="M40.2416 79.1244C62.1569 79.1244 79.9227 61.5363 79.9227 39.8402C79.9227 18.1441 62.1569 0.555908 40.2416 0.555908C18.3264 0.555908 0.560547 18.1441 0.560547 39.8402C0.560547 61.5363 18.3264 79.1244 40.2416 79.1244Z" fill="white"/>
<path d="M40.2425 79.6801C18.0552 79.6801 0 61.8055 0 39.8401C0 17.8747 18.0552 0 40.2425 0C62.4298 0 80.485 17.8747 80.485 39.8401C80.485 61.8055 62.4298 79.6801 40.2425 79.6801ZM40.2425 1.11161C18.6728 1.11161 1.12284 18.4861 1.12284 39.8401C1.12284 61.1941 18.6728 78.5685 40.2425 78.5685C61.8122 78.5685 79.3621 61.1941 79.3621 39.8401C79.3621 18.4861 61.8122 1.11161 40.2425 1.11161Z" fill="#263238"/>
<path d="M45.9014 4.5465C46.1709 4.56873 46.4066 4.57984 46.5975 4.57984L46.5751 4.7577C46.2607 4.80217 45.9912 5.0356 45.7779 5.48025L43.1055 10.7715L43.0269 10.7604L42.9595 10.7493L41.2641 4.84663C41.1518 4.45757 40.9609 4.24636 40.6914 4.21301L40.7139 4.03516C40.9609 4.07962 41.2865 4.11297 41.6907 4.15743C42.2185 4.2019 42.6115 4.23525 42.8697 4.23525L42.8473 4.4131C42.6115 4.40199 42.443 4.4131 42.342 4.44645C42.2409 4.4798 42.1848 4.56873 42.1736 4.67989C42.1623 4.77993 42.1848 4.92444 42.2409 5.11342L43.4873 9.62655L45.34 5.93601C45.4971 5.63587 45.5757 5.39132 45.5982 5.21346C45.6207 5.02449 45.5645 4.87998 45.441 4.77993C45.3175 4.67989 45.1154 4.62431 44.8459 4.59096L44.8684 4.4131C45.194 4.46868 45.5421 4.51315 45.9014 4.5465Z" fill="#263238"/>
<path d="M53.447 6.89197C53.3347 6.89197 53.2449 6.93644 53.1775 7.02537C53.1102 7.11429 53.0316 7.2588 52.953 7.47001L51.3473 11.6941C51.2687 11.9053 51.2238 12.0721 51.2238 12.1832C51.2238 12.2944 51.2575 12.3833 51.3361 12.45C51.4147 12.5167 51.5606 12.5945 51.7628 12.6835L51.6954 12.8502C51.4371 12.739 51.0778 12.5945 50.6175 12.4167C50.1234 12.2277 49.7529 12.1054 49.5059 12.0276L49.5732 11.8609C49.7866 11.9276 49.9438 11.9609 50.0448 11.9609C50.1459 11.9609 50.2469 11.9164 50.3143 11.8275C50.3817 11.7386 50.4603 11.5941 50.5389 11.3829L52.1445 7.15876C52.2231 6.94755 52.268 6.78081 52.268 6.66965C52.268 6.55849 52.2344 6.46956 52.1558 6.40286C52.0772 6.33617 51.9312 6.25836 51.7291 6.16943L51.7964 6.00269C52.0322 6.10273 52.3915 6.24724 52.8856 6.43621C53.346 6.61407 53.7165 6.73635 53.986 6.81416L53.9186 6.9809C53.7165 6.91421 53.5593 6.88086 53.447 6.89197Z" fill="#263238"/>
<path d="M63.4409 12.7723C63.3286 12.7501 63.2163 12.7834 63.1153 12.8501C63.0142 12.9168 62.8907 13.0502 62.756 13.2392L59.4997 17.6078L59.3313 17.4855L59.7692 10.4602L56.8835 14.3286C56.7488 14.5176 56.659 14.6732 56.614 14.7955C56.5691 14.9177 56.5916 15.0289 56.6477 15.1401C56.7039 15.2512 56.8386 15.3735 57.0295 15.5291L56.9172 15.6736C56.7488 15.5291 56.5018 15.3401 56.1761 15.0956C55.8842 14.8844 55.6484 14.7176 55.4688 14.6176L55.581 14.4731C55.7607 14.5954 55.9067 14.6621 56.0189 14.6732C56.1312 14.6954 56.2435 14.6621 56.3446 14.5954C56.4456 14.5176 56.5691 14.3953 56.7039 14.2063L59.3538 10.6492C59.4885 10.4602 59.5783 10.3157 59.612 10.2156C59.6457 10.1156 59.6345 10.0155 59.5783 9.92661C59.5222 9.83768 59.4099 9.72652 59.2303 9.58201L59.3425 9.4375C59.4885 9.57089 59.7131 9.74875 60.0162 9.95996C60.2408 10.1267 60.4317 10.2601 60.6113 10.3601L60.252 16.2517L62.5875 13.1169C62.7223 12.928 62.8233 12.7723 62.857 12.6501C62.8907 12.5278 62.8795 12.4166 62.8233 12.3055C62.7672 12.1943 62.6325 12.0609 62.4416 11.9164L62.5539 11.7719C62.7223 11.9164 62.9693 12.1054 63.2949 12.3499C63.5869 12.5611 63.8227 12.7279 64.0023 12.8279L63.89 12.9724C63.6991 12.8613 63.5532 12.7834 63.4409 12.7723Z" fill="#263238"/>
<path d="M67.2015 17.7857C67.4934 17.5745 67.7966 17.341 68.1222 17.052C68.4029 17.4744 68.897 18.1747 69.6043 19.1641C70.3117 20.1423 70.817 20.8315 71.1202 21.2317C70.7384 21.454 70.4128 21.6541 70.1208 21.8542C69.8738 22.032 69.6717 22.1876 69.5257 22.3099L69.4022 22.1432C69.7615 21.8319 70.0086 21.5763 70.1545 21.3873C70.3005 21.1983 70.3566 20.9982 70.3454 20.787C70.3342 20.5758 70.1994 20.3201 69.9861 20.0089L69.6942 19.6087L65.4386 22.61C65.2365 22.7546 65.0905 22.8879 65.0232 22.988C64.9558 23.088 64.9333 23.2103 64.9782 23.3437C65.0119 23.466 65.113 23.6438 65.259 23.8662L65.113 23.9773C64.9446 23.7105 64.6863 23.3326 64.3495 22.8768C63.9902 22.3766 63.7207 22.0209 63.541 21.7986L63.687 21.6874C63.8554 21.8986 63.9902 22.0431 64.1024 22.1209C64.2147 22.1988 64.327 22.221 64.4505 22.1876C64.574 22.1543 64.7425 22.0654 64.9446 21.9208L69.2001 18.9195L68.9082 18.5193C68.6836 18.2081 68.4815 18.0191 68.2906 17.9302C68.0997 17.8412 67.8864 17.8301 67.6618 17.9079C67.4373 17.9858 67.1116 18.1303 66.6962 18.3637L66.5727 18.197C66.7411 18.108 66.9432 17.9746 67.2015 17.7857Z" fill="#263238"/>
<path d="M69.358 33.2149L69.1784 33.2705C69.111 33.0259 69.0212 32.7147 68.8864 32.3367C68.718 31.8476 68.5833 31.4808 68.4822 31.2362L68.6619 31.1807C68.7405 31.3919 68.8303 31.5475 68.8976 31.6253C68.9762 31.7031 69.0773 31.7253 69.1896 31.6809C69.2906 31.6475 69.4142 31.5697 69.5601 31.4474L70.8065 30.4359L70.0991 28.3572L69.0548 28.3127C68.718 28.2905 68.4597 28.3127 68.2801 28.3794C68.1004 28.4461 67.9881 28.5461 67.9432 28.6906C67.9095 28.8352 67.932 29.0464 68.0106 29.302L67.8309 29.3576C67.7411 29.0241 67.6288 28.6906 67.5166 28.3572C67.4267 28.1015 67.3481 27.8903 67.2695 27.7236L67.4492 27.668C67.6064 27.9348 67.9432 28.0793 68.4373 28.0904L74.4108 28.3572L74.4557 28.4906L69.6949 32.4145C69.4029 32.6924 69.2906 32.9481 69.358 33.2149ZM73.2543 28.4906L70.3124 28.3683L70.9749 30.3247L73.2543 28.4906Z" fill="#263238"/>
<path d="M70.1774 41.7189C70.2896 41.6744 70.3458 41.6188 70.3458 41.541C70.3458 41.4966 70.3346 41.4632 70.3121 41.4299C70.2896 41.3965 70.2447 41.3298 70.1774 41.2409C70.0089 41.0297 69.8854 40.8074 69.7956 40.585C69.7058 40.3627 69.6609 40.1071 69.6609 39.8292C69.6496 39.2067 69.7731 38.6731 70.0202 38.2173C70.2784 37.7616 70.6377 37.417 71.1318 37.1724C71.6146 36.9279 72.1985 36.8056 72.8834 36.7945C73.5908 36.7833 74.2083 36.8945 74.7361 37.1391C75.2638 37.3836 75.6793 37.7171 75.9712 38.1617C76.2631 38.6064 76.4203 39.1066 76.4203 39.6624C76.4203 39.907 76.3979 40.1293 76.353 40.3183C76.3081 40.5072 76.2407 40.674 76.1621 40.8185C76.0835 40.963 75.9824 41.1297 75.8477 41.3076C75.7916 41.3854 75.7579 41.4521 75.7579 41.4966C75.7579 41.6077 75.9487 41.6855 76.3193 41.7189V41.9301C75.9263 41.9079 75.2189 41.9079 74.2083 41.9301V41.7189C74.534 41.6633 74.8035 41.5966 75.0168 41.5299C75.2301 41.4632 75.4098 41.3632 75.567 41.2409C75.7803 41.063 75.96 40.8296 76.0835 40.5406C76.207 40.2516 76.2631 39.9625 76.2631 39.6513C76.2519 39.2511 76.1172 38.9065 75.8477 38.6064C75.5782 38.3062 75.1964 38.0839 74.7136 37.9172C74.2196 37.7616 73.6582 37.6837 73.0069 37.6949C72.2658 37.706 71.6707 37.7949 71.1991 37.9617C70.7276 38.1284 70.3907 38.3729 70.1661 38.6953C69.9416 39.0177 69.8405 39.429 69.8517 39.9292C69.863 40.296 69.964 40.6073 70.1549 40.8741C70.2335 40.9852 70.3009 41.0519 70.3795 41.0853C70.4468 41.1186 70.5479 41.1297 70.6714 41.1297L71.5585 41.1186C71.8167 41.1186 71.9964 41.0853 72.1199 41.0408C72.2322 40.9963 72.322 40.9074 72.3557 40.774C72.4006 40.6517 72.423 40.4517 72.423 40.1849H72.6027C72.5915 40.485 72.5802 40.9074 72.5915 41.4743C72.6027 41.8967 72.6139 42.2191 72.6364 42.4192H72.4567C72.4455 42.2747 72.4118 42.1746 72.3781 42.1191C72.3444 42.0635 72.2658 42.019 72.1648 41.9968C72.0637 41.9746 71.8953 41.9634 71.6595 41.9746L69.8405 42.0079V41.83C69.9416 41.7856 70.0651 41.7634 70.1774 41.7189Z" fill="#263238"/>
<path d="M68.8406 51.1785C68.515 51.0784 68.1332 50.9784 67.6953 50.8895C67.8413 50.5004 68.0546 49.8446 68.3578 48.9108C68.7171 47.7992 68.9753 46.9544 69.1325 46.3875L69.3122 46.443C69.2561 46.6542 69.2336 46.8099 69.2336 46.921C69.2448 47.0322 69.2897 47.11 69.3796 47.1767C69.4694 47.2434 69.6266 47.3101 69.8399 47.3768L74.1853 48.7329C74.4099 48.7996 74.5671 48.833 74.6794 48.833C74.7916 48.833 74.8815 48.7885 74.9488 48.6996C75.0162 48.6107 75.0836 48.4662 75.1622 48.2661L75.3418 48.3217C75.1397 48.8886 74.8702 49.7223 74.5109 50.8339C74.2415 51.6787 74.0506 52.2901 73.9607 52.6569C73.5902 52.5013 73.2534 52.3679 72.939 52.279C72.7144 52.2123 72.5235 52.1567 72.3888 52.1345L72.4561 51.9344C72.8491 52.0122 73.1523 52.0455 73.3544 52.0455C73.5565 52.0455 73.7249 51.9788 73.8597 51.8455C73.9944 51.7232 74.1067 51.5009 74.2078 51.2007L74.4323 50.4782C74.4997 50.267 74.5334 50.1113 74.5222 50.0113C74.5109 49.9113 74.4772 49.8223 74.3874 49.7556C74.2976 49.6889 74.1516 49.6222 73.9271 49.5555L71.861 48.9108L71.6814 49.4888C71.5916 49.7779 71.614 50.0002 71.76 50.1558C71.906 50.3114 72.0631 50.4226 72.2428 50.5004C72.4225 50.5782 72.5347 50.6338 72.5797 50.656L72.5123 50.8561C72.2316 50.745 71.9621 50.6449 71.6926 50.5671L71.2772 50.4448C70.9852 50.3559 70.5585 50.2336 70.0196 50.1113L70.087 49.9113C70.1319 49.9224 70.2778 49.9446 70.5249 50.0002C70.7719 50.0446 70.9852 50.0224 71.1536 49.9335C71.3221 49.8446 71.4344 49.6778 71.513 49.4444L71.6926 48.8663L69.5817 48.2105C69.3571 48.1438 69.1999 48.1104 69.0876 48.1104C68.9753 48.1104 68.8855 48.1549 68.8294 48.2438C68.762 48.3328 68.6946 48.4773 68.6273 48.6885L68.4252 49.3221C68.3129 49.6889 68.268 49.978 68.3129 50.1892C68.3466 50.4115 68.4588 50.5893 68.6497 50.745C68.8406 50.8895 69.1325 51.0562 69.5255 51.2341L69.4582 51.4342C69.3234 51.3341 69.1101 51.2674 68.8406 51.1785Z" fill="#263238"/>
<path d="M65.6412 64.8181C65.6861 64.718 65.6749 64.618 65.63 64.518C65.585 64.4179 65.4728 64.2956 65.3043 64.1289L62.0032 61.0053C61.8348 60.8496 61.7 60.7496 61.599 60.7051C61.4979 60.6607 61.3969 60.6607 61.2958 60.7051C61.1947 60.7496 61.0712 60.8496 60.914 61.0053L60.7793 60.883C60.9926 60.694 61.2621 60.4161 61.6102 60.0715C61.9695 59.6936 62.239 59.4045 62.4074 59.2156L62.5422 59.3379C62.3962 59.5046 62.3064 59.638 62.2614 59.7269C62.2165 59.827 62.2278 59.927 62.2727 60.0271C62.3176 60.1271 62.4299 60.2494 62.5983 60.4161L65.8994 63.5397C66.0679 63.6954 66.2026 63.7954 66.3037 63.8399C66.4047 63.8843 66.5058 63.8843 66.6068 63.8399C66.7079 63.7954 66.8314 63.6954 66.9886 63.5397L67.1233 63.662C66.9324 63.8288 66.6517 64.1067 66.2924 64.4846C65.9443 64.8403 65.6861 65.1293 65.5064 65.3405L65.3717 65.2183C65.5064 65.0515 65.5963 64.9181 65.6412 64.8181Z" fill="#263238"/>
<path d="M56.287 71.5988C56.3544 71.4987 56.3656 71.3987 56.3432 71.2764C56.3207 71.1541 56.2421 70.9985 56.1186 70.7873L53.334 66.1074L53.5136 65.9963L59.8689 69.1421L57.4099 65.0069C57.2864 64.8069 57.1853 64.6623 57.0843 64.5845C56.9832 64.5067 56.8709 64.4734 56.7474 64.4845C56.6239 64.4956 56.4555 64.5623 56.2421 64.6735L56.1411 64.5178C56.3432 64.4289 56.6127 64.2733 56.9607 64.0732C57.2751 63.8842 57.5109 63.7397 57.6794 63.6174L57.7692 63.7731C57.5895 63.8842 57.466 63.9954 57.4099 64.0954C57.3425 64.1955 57.3313 64.2955 57.3537 64.4178C57.3762 64.5401 57.4548 64.6957 57.5783 64.9069L59.8464 68.7197C59.9587 68.9198 60.0598 69.0532 60.1496 69.1199C60.2394 69.1866 60.3293 69.2199 60.4415 69.1977C60.5426 69.1755 60.6998 69.1199 60.8907 69.0199L60.9805 69.1755C60.8009 69.2644 60.5538 69.3978 60.2282 69.5868C59.9924 69.7202 59.7903 69.8536 59.6219 69.9647L54.2884 67.3302L56.287 70.6873C56.4106 70.8874 56.5116 71.0319 56.6127 71.1097C56.7025 71.1875 56.8148 71.2208 56.9495 71.2097C57.0843 71.1986 57.2527 71.1319 57.466 71.0207L57.5559 71.1764C57.3537 71.2653 57.0843 71.4209 56.7362 71.621C56.4218 71.81 56.186 71.9545 56.0176 72.0768L55.9277 71.9211C56.0962 71.7989 56.2197 71.6877 56.287 71.5988Z" fill="#263238"/>
<path d="M50.1123 73.055C50.1909 73.3996 50.292 73.7776 50.4267 74.1778C49.9214 74.2667 49.0793 74.4445 47.8891 74.6891C46.6989 74.9448 45.868 75.1337 45.374 75.256C45.3178 74.8225 45.2617 74.4445 45.1831 74.0999C45.1157 73.7998 45.0596 73.5553 44.9922 73.3774L45.1943 73.3329C45.3403 73.7887 45.475 74.1111 45.5985 74.3223C45.722 74.5335 45.8792 74.6669 46.0813 74.7336C46.2835 74.8003 46.5754 74.7891 46.9459 74.7113L47.4287 74.6113L46.3284 69.5535C46.2722 69.3089 46.2161 69.131 46.1375 69.031C46.0589 68.931 45.9691 68.8643 45.8343 68.8531C45.6996 68.8309 45.4975 68.8531 45.228 68.8976L45.1943 68.7198C45.5087 68.6753 45.9578 68.5864 46.5192 68.4641C47.1144 68.3307 47.5635 68.2306 47.8442 68.1528L47.8779 68.3307C47.6084 68.3974 47.4287 68.4641 47.3165 68.5308C47.2042 68.5975 47.1368 68.6975 47.1143 68.8198C47.0919 68.9421 47.1031 69.131 47.1593 69.3756L48.2596 74.4334L48.7425 74.3334C49.113 74.2556 49.3825 74.1444 49.5397 73.9999C49.6969 73.8554 49.7867 73.6664 49.8092 73.433C49.8316 73.1995 49.8204 72.8438 49.7642 72.3769L49.9664 72.3325C50 72.5103 50.045 72.7549 50.1123 73.055Z" fill="#263238"/>
<path d="M35.2123 69.9313C35.246 69.5867 35.2573 69.1977 35.2573 68.7642C35.6727 68.8197 36.3689 68.8864 37.357 68.9754C38.5247 69.0754 39.4118 69.1532 40.0181 69.1866L40.0069 69.3644C39.7823 69.3533 39.6251 69.3644 39.524 69.3978C39.423 69.4311 39.3444 69.4867 39.2995 69.5867C39.2546 69.6868 39.2209 69.8535 39.1984 70.0759L38.7942 74.5779C38.7717 74.8002 38.783 74.9669 38.8054 75.0781C38.8279 75.1893 38.8952 75.2671 38.9963 75.3115C39.0974 75.356 39.2546 75.4005 39.4679 75.4227L39.4567 75.6006C38.8616 75.5339 37.9745 75.4449 36.8068 75.3449C35.9085 75.2671 35.2685 75.2226 34.8867 75.2004C34.9653 74.8113 35.0215 74.4556 35.0439 74.1332C35.0664 73.8998 35.0776 73.7108 35.0664 73.5663L35.2797 73.5885C35.2909 73.9887 35.3134 74.2777 35.3695 74.4778C35.4145 74.6779 35.5155 74.8224 35.6727 74.9225C35.8187 75.0225 36.0657 75.0892 36.3801 75.1114L37.1436 75.1781C37.3682 75.2004 37.5254 75.1893 37.6264 75.167C37.7275 75.1448 37.8061 75.0781 37.851 74.9781C37.8959 74.878 37.9296 74.7113 37.9521 74.4889L38.1429 72.3547L37.5366 72.2991C37.2334 72.2768 37.0201 72.3435 36.8966 72.5214C36.7843 72.6993 36.6945 72.8771 36.6608 73.0661C36.6159 73.2551 36.5934 73.3773 36.5822 73.4329L36.3689 73.4107C36.4138 73.1106 36.4475 72.8326 36.4812 72.5547L36.5148 72.1212C36.5373 71.81 36.5597 71.3876 36.5822 70.8318L36.7955 70.854C36.7955 70.8985 36.8068 71.043 36.8068 71.2986C36.818 71.5543 36.8741 71.7544 37.0089 71.8878C37.1324 72.0323 37.3233 72.1101 37.5703 72.1323L38.1766 72.1879L38.3675 70.0092C38.39 69.7868 38.3787 69.6201 38.3563 69.5089C38.3338 69.4089 38.2665 69.3311 38.1654 69.2866C38.0644 69.2422 37.9072 69.2088 37.6938 69.1866L37.0201 69.131C36.6383 69.0976 36.3464 69.1199 36.1331 69.2088C35.931 69.2866 35.7738 69.4422 35.6615 69.6534C35.5492 69.8647 35.4594 70.187 35.3695 70.6094L35.1562 70.5872C35.1562 70.4205 35.1787 70.1981 35.2123 69.9313Z" fill="#263238"/>
<path d="M26.3761 65.8074C26.5445 65.774 26.7354 65.8074 26.9375 65.8963C27.1733 65.9963 27.3305 66.1408 27.4204 66.3298C27.5102 66.5299 27.5214 66.8078 27.4653 67.1746L27.2968 68.0862C27.2407 68.4085 27.207 68.6531 27.1958 68.8421C27.1846 69.0199 27.2295 69.1867 27.3081 69.3312C27.3867 69.4757 27.5326 69.5868 27.746 69.6758L28.5544 70.0092L29.3741 68.075C29.4639 67.8638 29.5088 67.7082 29.5201 67.5971C29.5313 67.4859 29.4864 67.397 29.4078 67.3192C29.3292 67.2413 29.1944 67.1635 28.9923 67.0746L29.0597 66.9079C29.318 67.0301 29.666 67.1858 30.1264 67.3747C30.6092 67.5748 30.9798 67.7193 31.2268 67.7971L31.1594 67.9639C30.9461 67.8861 30.7889 67.8527 30.6878 67.8416C30.5755 67.8416 30.4857 67.875 30.4183 67.9639C30.3397 68.0417 30.2611 68.1862 30.1713 68.3974L28.4085 72.5659C28.3186 72.7771 28.2737 72.9328 28.2625 73.0439C28.2513 73.1551 28.2962 73.244 28.3748 73.3218C28.4534 73.3997 28.5881 73.4775 28.7902 73.5775L28.7229 73.7442C28.4871 73.6331 28.1502 73.4775 27.7011 73.2885C27.4765 73.1996 27.2407 73.0995 26.9712 72.9884C26.7017 72.8772 26.5221 72.8105 26.421 72.766C25.9831 72.5771 25.6351 72.3659 25.3768 72.1102C25.1185 71.8545 24.9726 71.5877 24.9052 71.2987C24.8378 71.0097 24.8715 70.7318 24.995 70.4539C25.0849 70.2316 25.2308 70.0315 25.4329 69.8536C25.6351 69.6758 25.8933 69.5424 26.2077 69.4757C26.5221 69.409 26.9039 69.4201 27.3193 69.5201L27.2183 69.4646C26.9825 69.32 26.8028 69.1755 26.6905 69.0199C26.5782 68.8754 26.4996 68.7087 26.4772 68.5308C26.4435 68.3529 26.4547 68.1306 26.4996 67.8638L26.6568 66.919C26.6905 66.73 26.713 66.5855 26.713 66.4743C26.713 66.3632 26.7017 66.2742 26.6681 66.2075C26.6344 66.1408 26.5782 66.0853 26.4996 66.063C26.4098 66.0186 26.32 66.0186 26.2414 66.0408C26.1628 66.063 26.0505 66.1186 25.9045 66.1964L25.8147 66.0519C26.0168 65.9296 26.2077 65.8407 26.3761 65.8074ZM26.9375 69.7647C26.6681 69.798 26.4547 69.8981 26.2863 70.0648C26.1179 70.2316 25.9719 70.4539 25.8484 70.7429C25.6575 71.1987 25.6126 71.5988 25.7361 71.9212C25.8596 72.2436 26.1628 72.5104 26.6681 72.7216C26.8477 72.7994 26.9825 72.8327 27.0947 72.8216C27.1958 72.8216 27.2856 72.7771 27.3642 72.6882C27.4428 72.5993 27.5214 72.4548 27.6 72.2547L28.4758 70.1871L27.9032 69.9537C27.5326 69.798 27.207 69.7313 26.9375 69.7647Z" fill="#263238"/>
<path d="M17.6171 67.3191C17.7181 67.3525 17.8192 67.3302 17.909 67.2747C17.9989 67.2191 18.1224 67.0968 18.2683 66.919L21.0867 63.3618C21.2326 63.1839 21.3225 63.0394 21.3561 62.9394C21.3898 62.8393 21.3786 62.7393 21.3225 62.6504C21.2663 62.5614 21.154 62.4392 20.9856 62.2947L21.0979 62.1501C21.3112 62.3391 21.6032 62.5837 21.9962 62.8838C22.4116 63.2062 22.726 63.4396 22.9393 63.5841L22.8271 63.7286C22.6474 63.5952 22.5014 63.5174 22.4004 63.4952C22.2993 63.4618 22.1983 63.473 22.1084 63.5397C22.0186 63.5952 21.8951 63.7175 21.7491 63.8954L18.9308 67.4525C18.7848 67.6304 18.695 67.7749 18.6613 67.8749C18.6276 67.975 18.6389 68.075 18.695 68.164C18.7512 68.2529 18.8634 68.3752 19.0319 68.5197L18.9196 68.6642C18.7287 68.4974 18.4255 68.2529 18.0101 67.9194C17.6171 67.6193 17.3027 67.3858 17.0781 67.2302L17.1904 67.0857C17.3813 67.208 17.516 67.2858 17.6171 67.3191Z" fill="#263238"/>
<path d="M10.3632 59.4045C10.3183 58.9043 10.4305 58.4041 10.6888 57.9261C10.9583 57.437 11.3625 57.0035 11.9239 56.5922C12.4741 56.2031 13.0243 55.9474 13.5969 55.8474C14.1696 55.7473 14.6973 55.7807 15.1914 55.9697C15.6854 56.1586 16.1009 56.481 16.4265 56.9368C16.7746 57.4036 16.9655 57.8927 17.0104 58.393C17.0553 58.8932 16.943 59.3934 16.6847 59.8714C16.4153 60.3605 16.011 60.7941 15.4496 61.2053C14.8994 61.5944 14.3492 61.8501 13.7766 61.9501C13.2152 62.0502 12.6762 62.0168 12.1822 61.8278C11.6881 61.6389 11.2727 61.3165 10.947 60.8719C10.599 60.3939 10.4081 59.9048 10.3632 59.4045ZM12.0474 61.3832C12.4404 61.461 12.8896 61.4277 13.3836 61.272C13.8777 61.1164 14.3717 60.8607 14.8882 60.4828C15.4047 60.116 15.8089 59.7158 16.0896 59.2934C16.3816 58.871 16.5388 58.4486 16.5612 58.0484C16.5949 57.6482 16.4939 57.2925 16.2805 56.9923C16.0447 56.6811 15.7416 56.481 15.3373 56.4032C14.9443 56.3254 14.4952 56.3587 14.0012 56.5144C13.5071 56.67 13.0131 56.9257 12.4966 57.2925C11.9801 57.6593 11.5758 58.0595 11.2951 58.493C11.0032 58.9154 10.846 59.3267 10.8123 59.738C10.7786 60.1382 10.8797 60.4939 11.093 60.794C11.3288 61.1053 11.6432 61.3054 12.0474 61.3832Z" fill="#263238"/>
<path d="M11.2278 46.0207C11.3626 46.1207 11.4636 46.2875 11.531 46.5098C11.6096 46.7432 11.5984 46.9656 11.5086 47.1545C11.4187 47.3546 11.2054 47.5436 10.8798 47.7326L10.0601 48.1883C9.77938 48.3551 9.56605 48.4885 9.42008 48.5996C9.27411 48.7108 9.17305 48.8442 9.11691 48.9998C9.06077 49.1554 9.06077 49.3333 9.12814 49.5556L9.38639 50.3893L11.4075 49.7668C11.6321 49.7001 11.778 49.6334 11.8679 49.5667C11.9577 49.5 12.0026 49.4111 12.0138 49.3111C12.0251 49.211 11.9914 49.0443 11.9352 48.8331L12.1149 48.7775C12.1823 49.0443 12.2833 49.4222 12.4405 49.8891C12.5977 50.3893 12.7212 50.7561 12.811 50.9896L12.6314 51.0452C12.5528 50.834 12.4854 50.6894 12.4181 50.6116C12.3507 50.5338 12.2609 50.4782 12.1486 50.4782C12.0363 50.4782 11.8679 50.5005 11.6545 50.5783L7.29791 51.9122C7.07335 51.9789 6.92738 52.0456 6.83755 52.1123C6.74772 52.179 6.70281 52.2679 6.69158 52.368C6.68035 52.4791 6.71404 52.6348 6.77018 52.846L6.59053 52.9016C6.53438 52.657 6.43333 52.3013 6.28736 51.8344C6.21999 51.6121 6.13016 51.3564 6.04034 51.0896C5.95051 50.8228 5.88314 50.6339 5.84945 50.5338C5.70348 50.0781 5.65857 49.6779 5.69226 49.3222C5.72594 48.9665 5.83823 48.6774 6.01788 48.444C6.19753 48.2106 6.43333 48.0549 6.72527 47.966C6.94983 47.8993 7.19686 47.8771 7.46634 47.9104C7.73582 47.9438 7.99407 48.0549 8.26355 48.255C8.53303 48.4551 8.7576 48.7441 8.94848 49.1332L8.93726 49.022C8.90357 48.7441 8.89234 48.5218 8.93726 48.3328C8.98217 48.1439 9.06077 47.9882 9.17305 47.8548C9.29656 47.7215 9.47622 47.5769 9.71201 47.4436L10.5429 46.9544C10.7113 46.8655 10.8461 46.7766 10.9247 46.7099C11.0033 46.6432 11.0706 46.5765 11.1043 46.5098C11.138 46.4431 11.138 46.3653 11.1156 46.2875C11.0819 46.1874 11.037 46.1207 10.9696 46.0763C10.9022 46.0318 10.7899 45.9762 10.6327 45.9206L10.6889 45.7539C10.9135 45.8317 11.1043 45.9206 11.2278 46.0207ZM8.54426 48.9998C8.35338 48.8219 8.12881 48.7219 7.89302 48.6997C7.65722 48.6774 7.38774 48.7108 7.08457 48.8108C6.60175 48.9553 6.27613 49.1888 6.09648 49.4889C5.91682 49.789 5.91682 50.2003 6.07402 50.7006C6.13016 50.8784 6.19753 51.0118 6.2649 51.0896C6.33227 51.1674 6.43333 51.2119 6.54561 51.2119C6.6579 51.2119 6.82632 51.1786 7.02843 51.123L9.18428 50.456L9.00463 49.8669C8.89234 49.4667 8.73515 49.1777 8.54426 48.9998Z" fill="#263238"/>
<path d="M10.3635 35.4716C10.7901 35.2826 11.0484 34.9269 11.1607 34.3933C11.1944 34.1932 11.1944 33.9931 11.1382 33.8042C11.0821 33.6152 10.981 33.4484 10.8238 33.3039C10.6666 33.1594 10.4533 33.0594 10.1726 33.0149C9.93679 32.9705 9.72345 32.9927 9.52134 33.0705C9.31923 33.1483 9.11712 33.2706 8.92624 33.4373C8.73536 33.6041 8.51079 33.8264 8.26377 34.1043C7.98306 34.4155 7.73603 34.6712 7.52269 34.8491C7.30935 35.038 7.07356 35.1714 6.81531 35.2715C6.55705 35.3715 6.26511 35.3826 5.93949 35.3271C5.60264 35.2604 5.32193 35.1381 5.11982 34.938C4.91771 34.7379 4.77174 34.5045 4.70437 34.2266C4.637 33.9487 4.637 33.6596 4.69314 33.3484C4.72683 33.1594 4.77174 33.0149 4.82788 32.8815C4.88403 32.7481 4.94017 32.6481 5.00754 32.5703C5.07491 32.4925 5.14228 32.4035 5.2321 32.3146C5.34439 32.1923 5.40053 32.1034 5.42299 32.0367C5.43422 31.9811 5.41176 31.9367 5.35562 31.8922C5.29947 31.8477 5.19842 31.8144 5.06368 31.7699L5.09736 31.5698C5.44544 31.6588 6.05178 31.7921 6.93882 31.9589L6.90513 32.159C6.59074 32.1256 6.2988 32.1367 6.00686 32.2034C5.72615 32.259 5.47913 32.3813 5.27702 32.5703C5.07491 32.7481 4.94017 33.0038 4.88402 33.3151C4.83911 33.5263 4.85034 33.7152 4.90648 33.9042C4.96262 34.0932 5.06368 34.2377 5.19842 34.36C5.34439 34.4822 5.51281 34.5601 5.71492 34.6045C6.04055 34.6601 6.32126 34.6156 6.55705 34.46C6.79285 34.3044 7.01742 34.1043 7.23075 33.8709C7.44409 33.6374 7.57883 33.4818 7.65743 33.404C7.97183 33.0705 8.23008 32.8148 8.44342 32.6259C8.65676 32.4369 8.89255 32.3035 9.15081 32.2146C9.40906 32.1256 9.68977 32.1145 9.99293 32.1701C10.3635 32.2368 10.6666 32.3813 10.8912 32.5925C11.1158 32.8148 11.2617 33.0705 11.3403 33.3817C11.4189 33.693 11.4189 34.0265 11.3516 34.3822C11.2954 34.6712 11.2281 34.8935 11.127 35.0714C11.0372 35.2492 10.9137 35.4049 10.7789 35.5494C10.6666 35.6717 10.6105 35.7606 10.588 35.8273C10.5768 35.8829 10.5993 35.9273 10.6554 35.9718C10.7116 36.0163 10.8126 36.0607 10.9473 36.0941L10.9137 36.2942C10.588 36.2052 9.86942 36.0607 8.75781 35.8606L8.7915 35.6605C9.42029 35.7161 9.93679 35.6605 10.3635 35.4716Z" fill="#263238"/>
<path d="M8.14042 26.1006C7.82603 25.9339 7.46672 25.7783 7.0625 25.6227C7.30952 25.1891 7.72497 24.4332 8.28639 23.355C8.84781 22.2878 9.2408 21.5319 9.45414 21.0762C9.82468 21.3096 10.1615 21.5097 10.4647 21.6653C10.7342 21.8098 10.97 21.9099 11.1496 21.9877L11.0486 22.1767C10.5994 21.9988 10.2626 21.8876 10.0268 21.8543C9.791 21.8098 9.57766 21.8543 9.398 21.9655C9.21835 22.0766 9.03869 22.2989 8.87027 22.6324L8.6457 23.0771L13.283 25.467C13.5076 25.5893 13.6872 25.6449 13.8108 25.656C13.9343 25.6671 14.0465 25.6338 14.1476 25.5448C14.2487 25.4559 14.3609 25.2892 14.4957 25.0557L14.6641 25.1447C14.4957 25.4226 14.2823 25.8116 14.0129 26.323C13.7322 26.8565 13.53 27.2678 13.4065 27.5235L13.2381 27.4346C13.3504 27.19 13.429 27.001 13.4402 26.8788C13.4627 26.7454 13.429 26.6342 13.3392 26.5342C13.2493 26.4341 13.1034 26.3341 12.8788 26.2118L8.24148 23.8107L8.00568 24.2443C7.82603 24.5777 7.74743 24.8445 7.75866 25.0557C7.76989 25.2669 7.85971 25.4559 8.02814 25.6227C8.19657 25.7894 8.47727 26.0117 8.8815 26.2674L8.78044 26.4564C8.63447 26.3674 8.4099 26.2452 8.14042 26.1006Z" fill="#263238"/>
<path d="M16.0682 13.3283C16.2591 13.1394 16.4163 12.9615 16.5286 12.8281L16.6633 12.9615C16.596 13.0616 16.5623 13.2061 16.5735 13.3728C16.5847 13.5396 16.6296 13.773 16.7195 14.0509L17.7412 17.0634L18.9315 18.2305C19.0999 18.3862 19.2234 18.4973 19.3244 18.5418C19.4255 18.5863 19.5266 18.5863 19.6276 18.5418C19.7287 18.4973 19.8522 18.3973 20.0206 18.2528L20.1554 18.3862C19.942 18.5751 19.6613 18.8419 19.3132 19.1865C18.9427 19.5534 18.6732 19.8424 18.5048 20.0314L18.37 19.898C18.516 19.7312 18.6171 19.6089 18.662 19.5089C18.7069 19.4088 18.7069 19.3088 18.6507 19.2088C18.6058 19.1087 18.4936 18.9753 18.3364 18.8197L17.3483 17.8526L13.598 16.7632C13.3734 16.6965 13.205 16.6743 13.0927 16.6854C12.9804 16.6965 12.9018 16.7299 12.8457 16.7855L12.7109 16.6521C12.8906 16.4964 13.0927 16.3186 13.2948 16.1074C13.7103 15.685 14.0134 15.3848 14.1819 15.1847L14.3166 15.3181C14.0134 15.6183 13.9461 15.8517 14.1145 16.0184C14.1819 16.0851 14.2717 16.1296 14.4064 16.1741L17.5616 17.1412L16.7307 14.6845C16.6072 14.3288 16.4837 14.0842 16.3489 13.962C16.2254 13.8397 16.0907 13.8063 15.9447 13.8508C15.7987 13.8953 15.6303 14.0064 15.4282 14.1954L15.2935 14.062C15.5629 13.8175 15.81 13.5729 16.0682 13.3283Z" fill="#263238"/>
<path d="M22.861 8.84845C22.7936 8.92626 22.7599 9.02631 22.7824 9.13747C22.8049 9.24863 22.861 9.40426 22.9733 9.60435L25.1404 13.5839C25.2526 13.784 25.3425 13.9174 25.4323 13.9952C25.5109 14.073 25.612 14.0952 25.713 14.0841C25.8141 14.073 25.9713 14.0063 26.1621 13.9063L26.7572 13.5839C27.0941 13.406 27.3299 13.2171 27.4534 13.0281C27.5769 12.8391 27.6218 12.6279 27.5881 12.3723C27.5545 12.1166 27.4534 11.7942 27.2738 11.3718L27.4646 11.2718C27.5432 11.4496 27.6555 11.6719 27.8015 11.9387C27.9699 12.2389 28.172 12.5723 28.419 12.9392C28.0485 13.117 27.4197 13.4394 26.5551 13.9063C25.5221 14.4621 24.7361 14.8845 24.2196 15.1846L24.1298 15.029C24.3207 14.9178 24.4554 14.8178 24.5228 14.74C24.5902 14.6622 24.6239 14.5621 24.6014 14.451C24.5789 14.3398 24.5228 14.1842 24.4105 13.9841L22.221 10.0045C22.1087 9.80444 22.0189 9.67104 21.929 9.59323C21.8504 9.51542 21.7494 9.49319 21.6483 9.5043C21.5361 9.51542 21.3901 9.571 21.188 9.67104L21.1094 9.5043C21.3452 9.40426 21.6933 9.2264 22.1536 8.97073C22.5915 8.73729 22.9284 8.54832 23.1642 8.40381L23.254 8.55943C23.0631 8.67059 22.9396 8.77064 22.861 8.84845Z" fill="#263238"/>
<path d="M36.5365 9.55984C36.6039 9.89332 36.705 10.2713 36.8285 10.6937C36.413 10.7604 35.7281 10.8826 34.7625 11.0716C33.6059 11.2939 32.7414 11.4718 32.1462 11.6052L32.1126 11.4273C32.3259 11.3718 32.4831 11.3273 32.5729 11.2606C32.6628 11.205 32.7189 11.1161 32.7301 11.016C32.7414 10.9049 32.7301 10.7381 32.6852 10.5158L31.8094 6.0805C31.7645 5.85818 31.7196 5.70255 31.6522 5.60251C31.5848 5.50246 31.5175 5.44688 31.4052 5.43577C31.3041 5.41353 31.1357 5.42465 30.9224 5.458L30.8887 5.28014C31.4838 5.1801 32.3596 5.02447 33.5049 4.80215C34.3919 4.62429 35.0207 4.50201 35.38 4.41309C35.4137 4.81327 35.4698 5.16898 35.526 5.48023C35.5709 5.71367 35.6158 5.89153 35.6607 6.02492L35.4586 6.06938C35.3351 5.69144 35.2228 5.41353 35.1218 5.23568C35.0207 5.05782 34.8747 4.94666 34.7063 4.89108C34.5267 4.8355 34.2909 4.8355 33.9652 4.90219L33.2129 5.0467C32.9996 5.09117 32.8424 5.13563 32.7526 5.19121C32.6628 5.24679 32.6066 5.32461 32.5842 5.43577C32.5729 5.54693 32.5842 5.71367 32.6291 5.93599L33.0445 8.04805L33.6396 7.92577C33.9428 7.87019 34.1224 7.7368 34.1898 7.53671C34.2572 7.33662 34.2796 7.14764 34.2684 6.95867C34.2572 6.7697 34.246 6.64742 34.246 6.59184L34.4481 6.54737C34.4818 6.84751 34.5267 7.12541 34.5828 7.3922L34.6726 7.81461C34.7288 8.11474 34.8298 8.53715 34.9758 9.07073L34.7737 9.11519C34.7625 9.07073 34.7175 8.93733 34.6389 8.69278C34.5604 8.44823 34.4481 8.28149 34.2796 8.18144C34.1112 8.0814 33.9203 8.05916 33.6733 8.10363L33.0782 8.21479L33.5049 10.3602C33.5498 10.5825 33.5947 10.7381 33.6509 10.8382C33.707 10.9271 33.7856 10.9827 33.8979 11.0049C33.9989 11.016 34.1674 11.0049 34.3807 10.9605L35.0432 10.8271C35.4137 10.7493 35.6944 10.6492 35.8741 10.5158C36.0537 10.3824 36.1548 10.1935 36.1997 9.96001C36.2446 9.72658 36.2446 9.39309 36.2109 8.95957L36.413 8.9151C36.4467 9.08184 36.4804 9.29305 36.5365 9.55984Z" fill="#263238"/>
<path d="M28.9688 52.0123C28.4523 51.3231 28.0032 50.5672 27.6102 49.7335C27.2172 48.8998 26.9028 48.055 26.667 47.1879C26.1505 43.3751 26.1393 39.6734 26.6221 36.0829C27.1049 32.4924 27.8909 28.9575 28.9688 25.4671C29.1485 25.078 29.5415 24.889 30.1478 24.889C30.7542 24.889 31.3493 25.0224 31.9556 25.2892C32.5619 25.556 33.056 25.9117 33.449 26.3563C33.842 26.801 33.9318 27.2679 33.7185 27.7459C33.3816 28.4573 33.056 29.4244 32.7304 30.6249C32.4047 31.8366 32.0791 33.1705 31.7872 34.6267C31.484 36.0829 31.2258 37.6169 31.0012 39.2065C30.7766 40.7961 30.6082 42.3302 30.5071 43.7864C30.4061 45.2426 30.3836 46.5654 30.4398 47.7437C30.4959 48.922 30.6756 49.8558 30.9787 50.5338C32.3935 48.6552 33.6848 46.7099 34.8637 44.6979C36.0427 42.6859 37.1431 40.6516 38.1761 38.5729C39.2091 36.5053 40.1972 34.4155 41.1292 32.2923C42.0611 30.1803 42.9819 28.0905 43.8801 26.034C44.3293 24.9891 44.7784 23.8886 45.2163 22.7325C45.6542 21.5653 46.2269 20.576 46.9567 19.7423C47.2599 19.4755 47.4957 19.3866 47.6529 19.4755C47.8213 19.5644 47.9336 19.7312 47.9897 19.9868C48.0459 20.2425 48.0795 20.5093 48.0795 20.7872C48.0795 21.0651 48.0795 21.2874 48.0795 21.4319C47.8662 22.7992 47.6865 24.1554 47.5406 25.5004C47.3946 26.8455 47.069 28.1349 46.5974 29.391C45.8114 31.3586 45.0142 33.3039 44.1833 35.2492C43.3524 37.1834 42.4654 39.0954 41.5222 40.974C40.579 42.8526 39.546 44.6757 38.4568 46.4431C37.3564 48.2217 36.1662 49.9113 34.8637 51.5121C33.842 52.7904 32.8202 53.4685 31.8209 53.5463C30.7766 53.6352 29.8447 53.1128 28.9688 52.0123Z" fill="#FF5196" stroke="white" stroke-miterlimit="10"/>
<path d="M47.5629 46.9657C46.9566 46.132 46.3615 45.2872 45.7776 44.4201C45.1937 43.5531 44.9018 42.6082 44.9018 41.5633C44.9018 40.4072 45.2387 39.3067 45.9124 38.2729C46.5861 37.2503 47.3608 36.4165 48.2366 35.794C48.5959 35.5606 48.9665 35.3605 49.337 35.216C49.7076 35.0715 50.1118 35.0826 50.5385 35.2605C50.7181 35.3494 50.909 35.4161 51.0999 35.4606C51.2908 35.505 51.4704 35.5606 51.6164 35.6162C51.7623 35.6718 51.9308 35.7607 52.1104 35.883C52.2901 36.0053 52.3799 36.1609 52.3799 36.3721C52.3799 37.2058 52.4024 37.8839 52.4473 38.4063C52.4922 38.9288 52.5596 39.3734 52.6494 39.7514C52.7392 40.1293 52.829 40.4517 52.9189 40.7296C53.0087 41.0186 53.0985 41.3187 53.1883 41.6411C53.2445 41.9412 53.2333 42.1969 53.1434 42.397C53.0536 42.6082 52.829 42.6304 52.4697 42.4859C51.8073 42.2525 51.3132 41.7745 50.9988 41.052C50.6844 40.3294 50.4486 39.6847 50.3027 39.0844C50.269 38.9621 50.2016 38.762 50.0781 38.4619C49.9546 38.1618 49.8872 37.9506 49.8535 37.8394C49.6177 37.7838 49.3258 37.8616 49.0002 38.084C48.6745 38.3063 48.3714 38.6175 48.1244 38.9955C47.8661 39.3845 47.6977 39.8292 47.6303 40.3405C47.5517 40.8519 47.6528 41.3521 47.9222 41.8634C48.0458 42.0413 48.2142 42.2636 48.4387 42.5082C48.6633 42.7638 48.8879 43.0195 49.1125 43.2863C49.337 43.5531 49.5616 43.8199 49.7862 44.0644C50.0107 44.309 50.2016 44.5202 50.3476 44.6647C50.5272 44.8425 50.6507 44.9426 50.7069 44.9537C50.763 44.9648 50.9202 44.9315 51.156 44.8425C51.4592 44.698 51.9195 44.4979 52.5371 44.2645C53.1547 44.0311 53.8059 43.7865 54.4796 43.5531C55.1533 43.3196 55.8046 43.1195 56.4221 42.9528C57.0397 42.7861 57.5113 42.7083 57.8481 42.7083C58.0615 42.7083 58.2074 42.7861 58.2973 42.9306C58.3871 43.0195 58.3759 43.1418 58.2523 43.2863C58.1288 43.4308 57.9716 43.5864 57.7808 43.7309C57.5899 43.8754 57.3765 44.0088 57.1744 44.1311C56.9611 44.2534 56.8263 44.3201 56.7702 44.3534C56.2537 44.6536 55.6137 44.9871 54.8277 45.365C54.0417 45.7318 53.368 46.0987 52.7954 46.4544C52.7392 46.51 52.6269 46.5767 52.4585 46.6322C52.2901 46.6878 52.1666 46.7545 52.0767 46.8101C52.4361 47.6105 52.6943 48.3108 52.8403 48.8888C52.9862 49.4668 53.0424 50.0226 52.9975 50.5673C52.9526 51.1009 52.8403 51.6456 52.6606 52.2014C52.481 52.7572 52.2339 53.3908 51.942 54.1022C51.5153 54.7914 51.0886 55.4473 50.6507 56.0698C50.2128 56.6923 49.73 57.2592 49.1798 57.7706C48.6409 58.2819 48.0458 58.6821 47.417 58.9711C46.7882 59.2712 46.092 59.4157 45.3397 59.4157C44.913 59.4157 44.5088 59.3602 44.1158 59.2601C43.7228 59.1601 43.3972 58.9377 43.1277 58.6154C42.4316 57.8706 42.0498 57.0591 41.96 56.181C41.8701 55.3028 41.9487 54.4357 42.1845 53.5687C42.3642 53.0351 42.5888 52.546 42.8582 52.0902C43.5207 50.9564 44.2506 50.0004 45.0478 49.2112C45.8562 48.433 46.6871 47.6771 47.5629 46.9657ZM49.1012 48.9777C48.7644 49.3112 48.3152 49.7781 47.7426 50.3895C47.1699 51.0009 46.6422 51.6678 46.1369 52.3793C45.6429 53.0907 45.2387 53.8021 44.9243 54.5024C44.6099 55.2027 44.5313 55.803 44.6772 56.3143C45.2836 56.0476 45.9011 55.6029 46.5299 54.9915C47.1587 54.3801 47.7201 53.7132 48.203 52.9795C48.6858 52.2459 49.0226 51.5233 49.2135 50.8119C49.4044 50.0893 49.3707 49.478 49.1012 48.9777Z" fill="#FF5196" stroke="white" stroke-miterlimit="10"/>
<path d="M40.2428 65.0625C26.1961 65.0625 14.7656 53.7463 14.7656 39.8401C14.7656 25.9339 26.1961 14.6177 40.2428 14.6177C54.2895 14.6177 65.72 25.9339 65.72 39.8401C65.72 53.7463 54.2895 65.0625 40.2428 65.0625ZM40.2428 15.7293C26.8137 15.7293 15.8885 26.5452 15.8885 39.8401C15.8885 53.1349 26.8137 63.9509 40.2428 63.9509C53.6719 63.9509 64.5971 53.1349 64.5971 39.8401C64.5971 26.5452 53.6719 15.7293 40.2428 15.7293Z" fill="#263238"/>
</g>
</svg>
