<svg width="116" height="64" viewBox="0 0 116 64" fill="none" xmlns="http://www.w3.org/2000/svg">
<path d="M30.4506 14.6802L1.52344 28.6802V35.6802H113.523V0.680176L65.3115 22.6802L30.4506 14.6802Z" fill="url(#paint0_linear_20_9705)"/>
<path d="M0.523438 28.6802L29.9671 14.4346L65.4506 22.2942L114.523 0.680176" stroke="#4C56CC" stroke-linecap="round"/>
<path d="M20.918 51.9097C20.918 53.8101 21.4512 55.2114 22.5176 56.1138C23.5908 57.0161 24.9307 57.4673 26.5371 57.4673C28.1367 57.4673 29.4697 57.0161 30.5361 56.1138C31.6025 55.2114 32.1357 53.8101 32.1357 51.9097V42.2505H29.4185V52.0635C29.4185 53.2324 29.1553 54.0698 28.6289 54.5757C28.1025 55.0747 27.4087 55.3242 26.5474 55.3242C25.6792 55.3242 24.9819 55.0747 24.4556 54.5757C23.936 54.0698 23.6763 53.2324 23.6763 52.0635V42.2505H20.918V51.9097ZM34.853 61.4766H37.5293V56.0522C37.8164 56.4624 38.2231 56.7871 38.7495 57.0264C39.2827 57.2656 39.8979 57.3853 40.5952 57.3853C41.9282 57.3853 43.0015 56.8965 43.8149 55.9189C44.6284 54.9346 45.0352 53.6426 45.0352 52.043V51.7148C45.0352 50.1084 44.625 48.8198 43.8047 47.8491C42.9844 46.8716 41.8975 46.3828 40.5439 46.3828C39.8467 46.3828 39.2212 46.5264 38.6675 46.8135C38.1138 47.0938 37.7139 47.4458 37.4678 47.8696H37.4165L37.355 46.5981H34.853V61.4766ZM37.5293 53.7759V49.9717C37.707 49.5615 37.9941 49.2026 38.3906 48.895C38.7939 48.5806 39.2861 48.4233 39.8672 48.4233C40.7012 48.4233 41.3164 48.7139 41.7129 49.2949C42.1094 49.8691 42.3076 50.6416 42.3076 51.6123V52.1455C42.3076 53.1162 42.1094 53.8955 41.7129 54.4834C41.3164 55.0645 40.7046 55.355 39.8774 55.355C39.3101 55.355 38.8179 55.1978 38.4009 54.8833C37.9907 54.562 37.7002 54.1929 37.5293 53.7759ZM51.5771 53.0273C51.5771 54.4561 52.0967 55.5532 53.1357 56.3188C54.1816 57.0845 55.542 57.4673 57.2168 57.4673C58.8984 57.4673 60.2417 57.0776 61.2466 56.2983C62.2583 55.5122 62.7642 54.4424 62.7642 53.0889C62.7642 51.7969 62.3711 50.7988 61.585 50.0947C60.7988 49.3838 59.6367 48.8096 58.0986 48.3721C56.6494 47.9688 55.7026 47.6133 55.2583 47.3057C54.814 46.998 54.5918 46.564 54.5918 46.0034C54.5918 45.4155 54.7969 44.9507 55.207 44.6089C55.6172 44.2671 56.2563 44.0962 57.1245 44.0962C57.9927 44.0962 58.6455 44.3047 59.083 44.7217C59.5273 45.1318 59.7495 45.6821 59.7495 46.3726V46.5981H62.4668V46.3213C62.4668 45.0088 61.978 43.9561 61.0005 43.1631C60.0298 42.3633 58.7344 41.9634 57.1143 41.9634C55.4873 41.9634 54.1987 42.353 53.2485 43.1323C52.2983 43.9048 51.8232 44.9233 51.8232 46.188C51.8301 47.3911 52.2095 48.3311 52.9614 49.0078C53.7202 49.6846 54.8823 50.2451 56.4478 50.6895C57.8901 51.0928 58.8438 51.4688 59.3086 51.8174C59.7734 52.166 60.0059 52.6479 60.0059 53.2632C60.0059 53.8921 59.7632 54.3979 59.2778 54.7808C58.7993 55.1636 58.1089 55.355 57.2065 55.355C56.3042 55.355 55.6001 55.1567 55.0942 54.7603C54.5884 54.3638 54.3354 53.769 54.3354 52.9761V52.7197H51.5771V53.0273ZM64.7739 57.1802H67.4502V50.0332C67.6484 49.5547 67.9321 49.1753 68.3013 48.895C68.6704 48.6147 69.1079 48.4746 69.6138 48.4746C70.1948 48.4746 70.6494 48.6318 70.9775 48.9463C71.3057 49.2607 71.4697 49.7871 71.4697 50.5254V57.1802H74.1357V50.3613C74.1357 48.9463 73.8145 47.9312 73.1719 47.3159C72.5361 46.6938 71.7158 46.3828 70.7109 46.3828C69.959 46.3828 69.3096 46.5298 68.7627 46.8237C68.2158 47.1177 67.7783 47.5005 67.4502 47.9722V41.584H64.7739V57.1802ZM76.1455 52.043C76.1455 53.6836 76.6343 54.9995 77.6118 55.9907C78.5962 56.9819 79.8882 57.4775 81.4878 57.4775C83.0874 57.4775 84.376 56.9819 85.3535 55.9907C86.3311 54.9995 86.8198 53.6836 86.8198 52.043V51.7148C86.8198 50.0811 86.3311 48.7686 85.3535 47.7773C84.376 46.7861 83.0874 46.2905 81.4878 46.2905C79.8882 46.2905 78.5962 46.7861 77.6118 47.7773C76.6343 48.7686 76.1455 50.0811 76.1455 51.7148V52.043ZM78.873 51.6123C78.873 50.6074 79.0986 49.811 79.5498 49.2231C80.001 48.6353 80.647 48.3413 81.4878 48.3413C82.3218 48.3413 82.9644 48.6353 83.4155 49.2231C83.8667 49.811 84.0923 50.6074 84.0923 51.6123V52.1558C84.0923 53.1606 83.8701 53.957 83.4258 54.5449C82.9814 55.1328 82.3354 55.4268 81.4878 55.4268C80.6401 55.4268 79.9907 55.1328 79.5396 54.5449C79.0952 53.957 78.873 53.1606 78.873 52.1558V51.6123ZM87.5786 48.5669H94.0488V46.5981H87.5786V48.5669ZM89.2705 54.1758C89.2705 55.3174 89.5474 56.1514 90.1011 56.6777C90.6548 57.2041 91.3999 57.4673 92.3364 57.4673C92.6987 57.4673 93.0269 57.4365 93.3208 57.375C93.6216 57.3135 93.854 57.2451 94.0181 57.1699V55.2012C93.8608 55.2627 93.6968 55.314 93.5259 55.355C93.3618 55.3892 93.1978 55.4062 93.0337 55.4062C92.6714 55.4062 92.3945 55.3105 92.2031 55.1191C92.0186 54.9277 91.9263 54.5688 91.9263 54.0425V43.8911H89.291V47.2852L89.2705 47.562V54.1758Z" fill="#263238"/>
<defs>
<linearGradient id="paint0_linear_20_9705" x1="57.5234" y1="0.680176" x2="57.3549" y2="35.1812" gradientUnits="userSpaceOnUse">
<stop stop-color="#7782FF"/>
<stop offset="1" stop-color="#7782FF" stop-opacity="0"/>
</linearGradient>
</defs>
</svg>
