<svg width="127" height="49" viewBox="0 0 127 49" fill="none" xmlns="http://www.w3.org/2000/svg">
<path d="M9.32753 13.5862C9.2342 13.3622 9.1082 13.0775 8.94953 12.7322C8.8002 12.3868 8.63686 12.0135 8.45953 11.6122C8.2822 11.2108 8.09086 10.8002 7.88553 10.3802C7.68953 9.95084 7.50286 9.54951 7.32553 9.17618C7.1482 8.79351 6.9802 8.45284 6.82153 8.15418C6.6722 7.85551 6.55086 7.62684 6.45753 7.46818C6.35486 8.56951 6.27086 9.76418 6.20553 11.0522C6.1402 12.3308 6.0842 13.6235 6.03753 14.9302H4.70753C4.74486 14.0902 4.78686 13.2455 4.83353 12.3962C4.8802 11.5375 4.93153 10.6975 4.98753 9.87618C5.05286 9.04551 5.1182 8.23818 5.18353 7.45418C5.2582 6.67018 5.33753 5.92818 5.42153 5.22818H6.61153C6.86353 5.63884 7.1342 6.12418 7.42353 6.68418C7.71286 7.24418 8.0022 7.83218 8.29153 8.44818C8.58086 9.05484 8.86086 9.66618 9.13153 10.2822C9.4022 10.8888 9.64953 11.4442 9.87353 11.9482C10.0975 11.4442 10.3449 10.8888 10.6155 10.2822C10.8862 9.66618 11.1662 9.05484 11.4555 8.44818C11.7449 7.83218 12.0342 7.24418 12.3235 6.68418C12.6129 6.12418 12.8835 5.63884 13.1355 5.22818H14.3255C14.6429 8.35484 14.8809 11.5888 15.0395 14.9302H13.7095C13.6629 13.6235 13.6069 12.3308 13.5415 11.0522C13.4762 9.76418 13.3922 8.56951 13.2895 7.46818C13.1962 7.62684 13.0702 7.85551 12.9115 8.15418C12.7622 8.45284 12.5989 8.79351 12.4215 9.17618C12.2442 9.54951 12.0529 9.95084 11.8475 10.3802C11.6515 10.8002 11.4649 11.2108 11.2875 11.6122C11.1102 12.0135 10.9422 12.3868 10.7835 12.7322C10.6342 13.0775 10.5129 13.3622 10.4195 13.5862H9.32753ZM23.5108 11.2902C23.5108 11.8688 23.4268 12.3915 23.2588 12.8582C23.0908 13.3248 22.8528 13.7262 22.5448 14.0622C22.2462 14.3982 21.8868 14.6595 21.4668 14.8462C21.0468 15.0235 20.5895 15.1122 20.0948 15.1122C19.6002 15.1122 19.1428 15.0235 18.7228 14.8462C18.3028 14.6595 17.9388 14.3982 17.6308 14.0622C17.3322 13.7262 17.0988 13.3248 16.9308 12.8582C16.7628 12.3915 16.6788 11.8688 16.6788 11.2902C16.6788 10.7208 16.7628 10.2028 16.9308 9.73618C17.0988 9.26018 17.3322 8.85418 17.6308 8.51818C17.9388 8.18218 18.3028 7.92551 18.7228 7.74818C19.1428 7.56151 19.6002 7.46818 20.0948 7.46818C20.5895 7.46818 21.0468 7.56151 21.4668 7.74818C21.8868 7.92551 22.2462 8.18218 22.5448 8.51818C22.8528 8.85418 23.0908 9.26018 23.2588 9.73618C23.4268 10.2028 23.5108 10.7208 23.5108 11.2902ZM22.1528 11.2902C22.1528 10.4688 21.9662 9.82018 21.5928 9.34418C21.2288 8.85884 20.7295 8.61618 20.0948 8.61618C19.4602 8.61618 18.9562 8.85884 18.5828 9.34418C18.2188 9.82018 18.0368 10.4688 18.0368 11.2902C18.0368 12.1115 18.2188 12.7648 18.5828 13.2502C18.9562 13.7262 19.4602 13.9642 20.0948 13.9642C20.7295 13.9642 21.2288 13.7262 21.5928 13.2502C21.9662 12.7648 22.1528 12.1115 22.1528 11.2902ZM30.0467 9.19018C29.888 9.05951 29.6593 8.93351 29.3607 8.81218C29.062 8.69084 28.7353 8.63018 28.3807 8.63018C28.0073 8.63018 27.6853 8.70018 27.4147 8.84018C27.1533 8.97084 26.9387 9.15751 26.7707 9.40018C26.6027 9.63351 26.4813 9.91351 26.4067 10.2402C26.332 10.5668 26.2947 10.9168 26.2947 11.2902C26.2947 12.1395 26.5047 12.7975 26.9247 13.2642C27.3447 13.7215 27.9047 13.9502 28.6047 13.9502C28.9593 13.9502 29.2533 13.9362 29.4867 13.9082C29.7293 13.8708 29.916 13.8335 30.0467 13.7962V9.19018ZM30.0467 4.29018L31.3487 4.06618V14.7202C31.05 14.8042 30.6673 14.8882 30.2007 14.9722C29.734 15.0562 29.1973 15.0982 28.5907 15.0982C28.0307 15.0982 27.5267 15.0095 27.0787 14.8322C26.6307 14.6548 26.248 14.4028 25.9307 14.0762C25.6133 13.7495 25.366 13.3528 25.1887 12.8862C25.0207 12.4102 24.9367 11.8782 24.9367 11.2902C24.9367 10.7302 25.0067 10.2168 25.1467 9.75018C25.296 9.28351 25.5107 8.88218 25.7907 8.54618C26.0707 8.21018 26.4113 7.94884 26.8127 7.76218C27.2233 7.57551 27.69 7.48218 28.2127 7.48218C28.6327 7.48218 29.0013 7.53818 29.3187 7.65018C29.6453 7.76218 29.888 7.86951 30.0467 7.97218V4.29018ZM33.1808 11.3042C33.1808 10.6602 33.2741 10.1002 33.4608 9.62418C33.6475 9.13884 33.8948 8.73751 34.2028 8.42018C34.5108 8.10284 34.8655 7.86484 35.2668 7.70618C35.6681 7.54751 36.0788 7.46818 36.4988 7.46818C37.4788 7.46818 38.2301 7.77618 38.7528 8.39218C39.2755 8.99884 39.5368 9.92751 39.5368 11.1782C39.5368 11.2342 39.5368 11.3088 39.5368 11.4022C39.5368 11.4862 39.5321 11.5655 39.5228 11.6402H34.5388C34.5948 12.3962 34.8141 12.9702 35.1968 13.3622C35.5795 13.7542 36.1768 13.9502 36.9888 13.9502C37.4461 13.9502 37.8288 13.9128 38.1368 13.8382C38.4541 13.7542 38.6921 13.6748 38.8508 13.6002L39.0328 14.6922C38.8741 14.7762 38.5941 14.8648 38.1928 14.9582C37.8008 15.0515 37.3528 15.0982 36.8488 15.0982C36.2141 15.0982 35.6635 15.0048 35.1968 14.8182C34.7395 14.6222 34.3615 14.3562 34.0628 14.0202C33.7641 13.6842 33.5401 13.2875 33.3908 12.8302C33.2508 12.3635 33.1808 11.8548 33.1808 11.3042ZM38.1788 10.5902C38.1881 10.0022 38.0388 9.52151 37.7308 9.14818C37.4321 8.76551 37.0168 8.57418 36.4848 8.57418C36.1861 8.57418 35.9201 8.63484 35.6868 8.75618C35.4628 8.86818 35.2715 9.01751 35.1128 9.20418C34.9541 9.39084 34.8281 9.60551 34.7348 9.84818C34.6508 10.0908 34.5948 10.3382 34.5668 10.5902H38.1788ZM44.0951 7.49618C44.2071 7.49618 44.3331 7.50551 44.4731 7.52418C44.6224 7.53351 44.7671 7.55218 44.9071 7.58018C45.0471 7.59884 45.1731 7.62218 45.2851 7.65018C45.4064 7.66884 45.4951 7.68751 45.5511 7.70618L45.3271 8.84018C45.2244 8.80284 45.0518 8.76084 44.8091 8.71418C44.5758 8.65818 44.2724 8.63018 43.8991 8.63018C43.6564 8.63018 43.4138 8.65818 43.1711 8.71418C42.9378 8.76084 42.7838 8.79351 42.7091 8.81218V14.9302H41.4071V7.95818C41.7151 7.84618 42.0978 7.74351 42.5551 7.65018C43.0124 7.54751 43.5258 7.49618 44.0951 7.49618ZM46.8075 7.86018C47.1062 7.78551 47.5028 7.70618 47.9975 7.62218C48.4922 7.53818 49.0615 7.49618 49.7055 7.49618C50.2842 7.49618 50.7648 7.58018 51.1475 7.74818C51.5302 7.90684 51.8335 8.13551 52.0575 8.43418C52.2908 8.72351 52.4542 9.07351 52.5475 9.48418C52.6408 9.89484 52.6875 10.3475 52.6875 10.8422V14.9302H51.3855V11.1222C51.3855 10.6742 51.3528 10.2915 51.2875 9.97418C51.2315 9.65684 51.1335 9.40018 50.9935 9.20418C50.8535 9.00818 50.6668 8.86818 50.4335 8.78418C50.2002 8.69084 49.9108 8.64418 49.5655 8.64418C49.4255 8.64418 49.2808 8.64884 49.1315 8.65818C48.9822 8.66751 48.8375 8.68151 48.6975 8.70018C48.5668 8.70951 48.4455 8.72351 48.3335 8.74218C48.2308 8.76084 48.1562 8.77484 48.1095 8.78418V14.9302H46.8075V7.86018Z" fill="#263238"/>
<path d="M12.6495 41.3502C9.26953 41.3502 6.68953 40.4102 4.90953 38.5302C3.14953 36.6502 2.26953 33.9802 2.26953 30.5202C2.26953 28.8002 2.53953 27.2702 3.07953 25.9302C3.61953 24.5702 4.35953 23.4302 5.29953 22.5102C6.23953 21.5702 7.35953 20.8602 8.65953 20.3802C9.95953 19.9002 11.3695 19.6602 12.8895 19.6602C13.7695 19.6602 14.5695 19.7302 15.2895 19.8702C16.0095 19.9902 16.6395 20.1402 17.1795 20.3202C17.7195 20.4802 18.1695 20.6502 18.5295 20.8302C18.8895 21.0102 19.1495 21.1502 19.3095 21.2502L17.9595 25.0302C17.3195 24.6902 16.5695 24.4002 15.7095 24.1602C14.8695 23.9202 13.9095 23.8002 12.8295 23.8002C12.1095 23.8002 11.3995 23.9202 10.6995 24.1602C10.0195 24.4002 9.40953 24.7902 8.86953 25.3302C8.34953 25.8502 7.92953 26.5302 7.60953 27.3702C7.28953 28.2102 7.12953 29.2302 7.12953 30.4302C7.12953 31.3902 7.22953 32.2902 7.42953 33.1302C7.64953 33.9502 7.98953 34.6602 8.44953 35.2602C8.92953 35.8602 9.54953 36.3402 10.3095 36.7002C11.0695 37.0402 11.9895 37.2102 13.0695 37.2102C13.7495 37.2102 14.3595 37.1702 14.8995 37.0902C15.4395 37.0102 15.9195 36.9202 16.3395 36.8202C16.7595 36.7002 17.1295 36.5702 17.4495 36.4302C17.7695 36.2902 18.0595 36.1602 18.3195 36.0402L19.6095 39.7902C18.9495 40.1902 18.0195 40.5502 16.8195 40.8702C15.6195 41.1902 14.2295 41.3502 12.6495 41.3502ZM31.8327 29.1102C31.4327 29.0102 30.9627 28.9102 30.4227 28.8102C29.8827 28.6902 29.3027 28.6302 28.6827 28.6302C28.4027 28.6302 28.0627 28.6602 27.6627 28.7202C27.2827 28.7602 26.9927 28.8102 26.7927 28.8702V40.9302H22.3227V25.9902C23.1227 25.7102 24.0627 25.4502 25.1427 25.2102C26.2427 24.9502 27.4627 24.8202 28.8027 24.8202C29.0427 24.8202 29.3327 24.8402 29.6727 24.8802C30.0127 24.9002 30.3527 24.9402 30.6927 25.0002C31.0327 25.0402 31.3727 25.1002 31.7127 25.1802C32.0527 25.2402 32.3427 25.3202 32.5827 25.4202L31.8327 29.1102ZM49.9264 25.1502C49.0264 28.1902 48.0864 31.0402 47.1064 33.7002C46.1264 36.3602 45.0564 38.9402 43.8964 41.4402C43.4764 42.3402 43.0564 43.1002 42.6364 43.7202C42.2164 44.3602 41.7564 44.8802 41.2564 45.2802C40.7564 45.7002 40.1864 46.0002 39.5464 46.1802C38.9264 46.3802 38.1964 46.4802 37.3564 46.4802C36.6564 46.4802 36.0064 46.4102 35.4064 46.2702C34.8264 46.1502 34.3464 46.0102 33.9664 45.8502L34.7464 42.2802C35.2064 42.4402 35.6164 42.5502 35.9764 42.6102C36.3364 42.6702 36.7164 42.7002 37.1164 42.7002C37.9164 42.7002 38.5264 42.4802 38.9464 42.0402C39.3864 41.6202 39.7564 41.0302 40.0564 40.2702C39.0364 38.2702 38.0164 36.0302 36.9964 33.5502C35.9764 31.0502 35.0164 28.2502 34.1164 25.1502H38.8564C39.0564 25.9302 39.2864 26.7802 39.5464 27.7002C39.8264 28.6002 40.1164 29.5202 40.4164 30.4602C40.7164 31.3802 41.0164 32.2802 41.3164 33.1602C41.6364 34.0402 41.9364 34.8402 42.2164 35.5602C42.4764 34.8402 42.7464 34.0402 43.0264 33.1602C43.3064 32.2802 43.5764 31.3802 43.8364 30.4602C44.1164 29.5202 44.3764 28.6002 44.6164 27.7002C44.8764 26.7802 45.1064 25.9302 45.3064 25.1502H49.9264ZM62.4327 33.1602C62.4327 31.7802 62.1227 30.6802 61.5027 29.8602C60.8827 29.0202 59.9627 28.6002 58.7427 28.6002C58.3427 28.6002 57.9727 28.6202 57.6327 28.6602C57.2927 28.6802 57.0127 28.7102 56.7927 28.7502V36.8202C57.0727 37.0002 57.4327 37.1502 57.8727 37.2702C58.3327 37.3902 58.7927 37.4502 59.2527 37.4502C61.3727 37.4502 62.4327 36.0202 62.4327 33.1602ZM66.9927 33.0402C66.9927 34.2602 66.8427 35.3702 66.5427 36.3702C66.2427 37.3702 65.8027 38.2302 65.2227 38.9502C64.6427 39.6702 63.9227 40.2302 63.0627 40.6302C62.2027 41.0302 61.2127 41.2302 60.0927 41.2302C59.4727 41.2302 58.8927 41.1702 58.3527 41.0502C57.8127 40.9302 57.2927 40.7602 56.7927 40.5402V46.4802H52.3227V25.6902C52.7227 25.5702 53.1827 25.4602 53.7027 25.3602C54.2227 25.2402 54.7627 25.1402 55.3227 25.0602C55.9027 24.9802 56.4827 24.9202 57.0627 24.8802C57.6627 24.8202 58.2327 24.7902 58.7727 24.7902C60.0727 24.7902 61.2327 24.9902 62.2527 25.3902C63.2727 25.7702 64.1327 26.3202 64.8327 27.0402C65.5327 27.7402 66.0627 28.6002 66.4227 29.6202C66.8027 30.6402 66.9927 31.7802 66.9927 33.0402ZM70.2781 21.2202L74.7481 20.5002V25.1502H80.1181V28.8702H74.7481V34.4202C74.7481 35.3602 74.9081 36.1102 75.2281 36.6702C75.5681 37.2302 76.2381 37.5102 77.2381 37.5102C77.7181 37.5102 78.2081 37.4702 78.7081 37.3902C79.2281 37.2902 79.6981 37.1602 80.1181 37.0002L80.7481 40.4802C80.2081 40.7002 79.6081 40.8902 78.9481 41.0502C78.2881 41.2102 77.4781 41.2902 76.5181 41.2902C75.2981 41.2902 74.2881 41.1302 73.4881 40.8102C72.6881 40.4702 72.0481 40.0102 71.5681 39.4302C71.0881 38.8302 70.7481 38.1102 70.5481 37.2702C70.3681 36.4302 70.2781 35.5002 70.2781 34.4802V21.2202ZM97.9323 33.0102C97.9323 34.2502 97.7523 35.3902 97.3923 36.4302C97.0323 37.4502 96.5123 38.3302 95.8323 39.0702C95.1523 39.7902 94.3323 40.3502 93.3723 40.7502C92.4323 41.1502 91.3723 41.3502 90.1923 41.3502C89.0323 41.3502 87.9723 41.1502 87.0123 40.7502C86.0723 40.3502 85.2623 39.7902 84.5823 39.0702C83.9023 38.3302 83.3723 37.4502 82.9923 36.4302C82.6123 35.3902 82.4223 34.2502 82.4223 33.0102C82.4223 31.7702 82.6123 30.6402 82.9923 29.6202C83.3923 28.6002 83.9323 27.7302 84.6123 27.0102C85.3123 26.2902 86.1323 25.7302 87.0723 25.3302C88.0323 24.9302 89.0723 24.7302 90.1923 24.7302C91.3323 24.7302 92.3723 24.9302 93.3123 25.3302C94.2723 25.7302 95.0923 26.2902 95.7723 27.0102C96.4523 27.7302 96.9823 28.6002 97.3623 29.6202C97.7423 30.6402 97.9323 31.7702 97.9323 33.0102ZM93.3723 33.0102C93.3723 31.6302 93.0923 30.5502 92.5323 29.7702C91.9923 28.9702 91.2123 28.5702 90.1923 28.5702C89.1723 28.5702 88.3823 28.9702 87.8223 29.7702C87.2623 30.5502 86.9823 31.6302 86.9823 33.0102C86.9823 34.3902 87.2623 35.4902 87.8223 36.3102C88.3823 37.1102 89.1723 37.5102 90.1923 37.5102C91.2123 37.5102 91.9923 37.1102 92.5323 36.3102C93.0923 35.4902 93.3723 34.3902 93.3723 33.0102Z" fill="#263238"/>
<path d="M114.77 43.9302V30.9867L104.77 21.9302V43.9302H114.77Z" fill="#27CAEA"/>
<path d="M126.721 43.6163V30.8575L117.064 21.9302V43.6163H126.721Z" fill="#FFB04E"/>
</svg>
