<svg width="161" height="162" viewBox="0 0 161 162" fill="none" xmlns="http://www.w3.org/2000/svg">
<rect y="-12" width="161" height="173.778" rx="12" fill="#EEEEEE"/>
<path d="M145.593 74.9284C145.593 76.3323 145.033 77.6787 144.036 78.6714C143.039 79.6641 141.688 80.2218 140.278 80.2218H81.8192C80.4098 80.2218 79.058 79.6641 78.0614 78.6714C77.0647 77.6787 76.5048 76.3323 76.5048 74.9284C76.5048 73.5245 77.0647 72.1781 78.0614 71.1854C79.058 70.1926 80.4098 69.6349 81.8192 69.6349H140.278C141.688 69.6349 143.039 70.1926 144.036 71.1854C145.033 72.1781 145.593 73.5245 145.593 74.9284ZM81.8192 37.8742H140.278C141.688 37.8742 143.039 37.3165 144.036 36.3238C145.033 35.3311 145.593 33.9847 145.593 32.5808C145.593 31.1769 145.033 29.8305 144.036 28.8377C143.039 27.845 141.688 27.2873 140.278 27.2873H81.8192C80.4098 27.2873 79.058 27.845 78.0614 28.8377C77.0647 29.8305 76.5048 31.1769 76.5048 32.5808C76.5048 33.9847 77.0647 35.3311 78.0614 36.3238C79.058 37.3165 80.4098 37.8742 81.8192 37.8742ZM140.278 111.983H81.8192C80.4098 111.983 79.058 112.54 78.0614 113.533C77.0647 114.526 76.5048 115.872 76.5048 117.276C76.5048 118.68 77.0647 120.026 78.0614 121.019C79.058 122.012 80.4098 122.569 81.8192 122.569H140.278C141.688 122.569 143.039 122.012 144.036 121.019C145.033 120.026 145.593 118.68 145.593 117.276C145.593 115.872 145.033 114.526 144.036 113.533C143.039 112.54 141.688 111.983 140.278 111.983ZM54.317 18.09L34.8528 35.9554L26.9475 28.6769C25.9024 27.7647 24.5402 27.2966 23.1528 27.3727C21.7653 27.4489 20.463 28.0633 19.5248 29.0842C18.5867 30.1052 18.0873 31.4516 18.1337 32.8349C18.18 34.2182 18.7685 35.5284 19.773 36.4847L31.2655 47.0716C32.245 47.965 33.5247 48.4607 34.8528 48.4611C36.2014 48.4644 37.5032 47.9693 38.5065 47.0716L61.4915 25.8978C62.0237 25.4333 62.4574 24.8677 62.7671 24.234C63.0769 23.6003 63.2566 22.9115 63.2955 22.2077C63.3344 21.504 63.2319 20.7996 62.9939 20.1359C62.7558 19.4722 62.3871 18.8625 61.9094 18.3426C61.4317 17.8227 60.8545 17.403 60.2118 17.1083C59.5691 16.8135 58.8737 16.6495 58.1665 16.626C57.4593 16.6025 56.7545 16.7198 56.0935 16.9712C55.4324 17.2226 54.8285 17.603 54.317 18.09ZM54.317 60.4376L34.8528 78.303L26.9475 71.0245C26.436 70.5375 25.832 70.1571 25.171 69.9057C24.5099 69.6544 23.8052 69.537 23.098 69.5605C22.3908 69.584 21.6954 69.748 21.0527 70.0428C20.41 70.3375 19.8328 70.7572 19.3551 71.2771C18.8773 71.797 18.5086 72.4067 18.2706 73.0704C18.0326 73.7341 17.9301 74.4385 17.969 75.1422C18.0079 75.846 18.1875 76.5349 18.4973 77.1685C18.8071 77.8022 19.2408 78.3678 19.773 78.8323L31.2655 89.4192C32.245 90.3126 33.5247 90.8083 34.8528 90.8087C36.2014 90.812 37.5032 90.3169 38.5065 89.4192L61.4915 68.2454C62.0237 67.7809 62.4574 67.2153 62.7671 66.5816C63.0769 65.948 63.2566 65.2591 63.2955 64.5553C63.3344 63.8516 63.2319 63.1472 62.9939 62.4835C62.7558 61.8198 62.3871 61.2101 61.9094 60.6902C61.4317 60.1703 60.8545 59.7506 60.2118 59.4559C59.5691 59.1611 58.8737 58.9971 58.1665 58.9736C57.4593 58.9501 56.7545 59.0675 56.0935 59.3188C55.4324 59.5702 54.8285 59.9506 54.317 60.4376ZM54.317 102.785L34.8528 120.651L26.9475 113.372C26.436 112.885 25.832 112.505 25.171 112.253C24.5099 112.002 23.8052 111.885 23.098 111.908C22.3908 111.932 21.6954 112.096 21.0527 112.39C20.41 112.685 19.8328 113.105 19.3551 113.625C18.8773 114.145 18.5086 114.754 18.2706 115.418C18.0326 116.082 17.9301 116.786 17.969 117.49C18.0079 118.194 18.1875 118.882 18.4973 119.516C18.8071 120.15 19.2408 120.715 19.773 121.18L31.2655 131.767C32.245 132.66 33.5247 133.156 34.8528 133.156C36.2014 133.16 37.5032 132.665 38.5065 131.767L61.4915 110.593C62.4959 109.637 63.0844 108.326 63.1308 106.943C63.1772 105.56 62.6778 104.214 61.7397 103.193C60.8015 102.172 59.4992 101.557 58.1117 101.481C56.7243 101.405 55.3621 101.873 54.317 102.785Z" fill="#F3F3F3"/>
</svg>
