<svg width="126" height="174" viewBox="0 0 126 174" fill="none" xmlns="http://www.w3.org/2000/svg">
<path d="M156.962 -3.23438H14.2693C10.4848 -3.23437 6.85537 -1.74062 4.17937 0.918291C1.50336 3.5772 0 7.18345 0 10.9437V62.9596C0 142.18 67.6006 168.498 81.1564 172.928C84.0323 173.995 87.1988 173.995 90.0747 172.928C103.63 168.498 171.231 142.18 171.231 62.9596V10.9437C171.231 7.18345 169.728 3.5772 167.052 0.918291C164.376 -1.74062 160.746 -3.23437 156.962 -3.23438ZM121.735 77.5807L97.1201 85.5559L112.37 106.38C112.921 107.128 113.316 107.978 113.534 108.879C113.751 109.781 113.786 110.716 113.637 111.631C113.488 112.546 113.157 113.423 112.664 114.21C112.171 114.997 111.525 115.679 110.765 116.216C109.567 117.142 108.091 117.641 106.573 117.634C105.446 117.624 104.336 117.354 103.33 116.847C102.324 116.34 101.45 115.608 100.777 114.71L85.6155 93.8856L70.4544 114.71C69.7806 115.608 68.9066 116.34 67.901 116.847C66.8954 117.354 65.7853 117.624 64.6576 117.634C63.14 117.641 61.664 117.142 60.466 116.216C59.7056 115.679 59.0602 114.997 58.5672 114.21C58.0742 113.423 57.7435 112.546 57.5941 111.631C57.4448 110.716 57.4799 109.781 57.6973 108.879C57.9147 107.978 58.3101 107.128 58.8607 106.38L74.1109 85.5559L49.4965 77.5807C47.7031 77.0107 46.2092 75.7593 45.3405 74.0994C44.4718 72.4394 44.2987 70.5056 44.859 68.7194C45.4519 66.9309 46.7285 65.4455 48.4134 64.5835C50.0984 63.7216 52.0568 63.5521 53.8664 64.1116L78.4809 72.0867V46.3889C78.4809 44.5088 79.2326 42.7057 80.5706 41.3762C81.9086 40.0468 83.7233 39.2999 85.6155 39.2999C87.5077 39.2999 89.3225 40.0468 90.6605 41.3762C91.9985 42.7057 92.7502 44.5088 92.7502 46.3889V72.0867L117.365 64.1116C119.174 63.5521 121.133 63.7216 122.818 64.5835C124.503 65.4455 125.779 66.9309 126.372 68.7194C126.932 70.5056 126.759 72.4394 125.891 74.0994C125.022 75.7593 123.528 77.0107 121.735 77.5807Z" fill="#EEEEEE"/>
</svg>
