<svg width="134" height="139" viewBox="0 0 134 139" fill="none" xmlns="http://www.w3.org/2000/svg">
<circle cx="84" cy="55" r="84" fill="#EEEEEE"/>
<line x1="98.9668" y1="37.3223" x2="47.3539" y2="37.3223" stroke="#F3F3F3" stroke-width="8" stroke-linecap="round"/>
<line x1="66.3223" y1="78.0977" x2="117.935" y2="78.0977" stroke="#F3F3F3" stroke-width="8" stroke-linecap="round"/>
<path d="M121.119 35.2913C121.557 35.6881 121.557 36.3756 121.119 36.7725L95.1559 60.3282C94.5133 60.9112 93.4839 60.4552 93.4839 59.5875L93.4839 12.4762C93.4839 11.6086 94.5133 11.1526 95.1559 11.7356L121.119 35.2913Z" fill="#F3F3F3"/>
<path d="M44.1718 80.1277C43.7344 79.7308 43.7344 79.0433 44.1718 78.6464L70.1352 55.0908C70.7778 54.5078 71.8071 54.9637 71.8071 55.8314L71.8071 102.943C71.8071 103.81 70.7778 104.266 70.1351 103.683L44.1718 80.1277Z" fill="#F3F3F3"/>
</svg>
