<svg width="57" height="60" viewBox="0 0 57 60" fill="none" xmlns="http://www.w3.org/2000/svg">
<circle cx="28.5" cy="27.125" r="19" fill="#FFE1BC"/>
<path d="M52.25 0H4.75C3.49022 0 2.28204 0.500445 1.39124 1.39124C0.500445 2.28204 0 3.49022 0 4.75V22.1766C0 48.7172 22.5031 57.5344 27.0156 59.0187C27.973 59.376 29.027 59.376 29.9844 59.0187C34.4969 57.5344 57 48.7172 57 22.1766V4.75C57 3.49022 56.4996 2.28204 55.6088 1.39124C54.718 0.500445 53.5098 0 52.25 0ZM40.5234 27.075L32.3297 29.7469L37.4062 36.7234C37.5895 36.9742 37.7211 37.2588 37.7935 37.5608C37.8659 37.8628 37.8776 38.1762 37.8279 38.4828C37.7781 38.7893 37.668 39.083 37.5039 39.3467C37.3398 39.6103 37.125 39.8388 36.8719 40.0187C36.4731 40.3288 35.9817 40.4961 35.4766 40.4937C35.1012 40.4903 34.7316 40.4001 34.3969 40.2301C34.0621 40.0602 33.7712 39.8151 33.5469 39.5141L28.5 32.5375L23.4531 39.5141C23.2288 39.8151 22.9379 40.0602 22.6031 40.2301C22.2684 40.4001 21.8988 40.4903 21.5234 40.4937C21.0183 40.4961 20.5269 40.3288 20.1281 40.0187C19.875 39.8388 19.6602 39.6103 19.4961 39.3467C19.332 39.083 19.2219 38.7893 19.1721 38.4828C19.1224 38.1762 19.1341 37.8628 19.2065 37.5608C19.2789 37.2588 19.4105 36.9742 19.5938 36.7234L24.6703 29.7469L16.4766 27.075C15.8796 26.884 15.3823 26.4648 15.0931 25.9086C14.8039 25.3525 14.7463 24.7047 14.9328 24.1062C15.1302 23.507 15.5551 23.0094 16.116 22.7206C16.6769 22.4318 17.3289 22.3751 17.9312 22.5625L26.125 25.2344V16.625C26.125 15.9951 26.3752 15.391 26.8206 14.9456C27.266 14.5002 27.8701 14.25 28.5 14.25C29.1299 14.25 29.734 14.5002 30.1794 14.9456C30.6248 15.391 30.875 15.9951 30.875 16.625V25.2344L39.0688 22.5625C39.6711 22.3751 40.3231 22.4318 40.884 22.7206C41.4449 23.0094 41.8698 23.507 42.0672 24.1062C42.2537 24.7047 42.1961 25.3525 41.9069 25.9086C41.6177 26.4648 41.1204 26.884 40.5234 27.075Z" fill="#FEBA66"/>
</svg>
