<svg width="168" height="170" viewBox="0 0 168 170" fill="none" xmlns="http://www.w3.org/2000/svg">
<path d="M68.4662 65.3299C69.5652 64.684 70.4761 63.7612 71.1083 62.6534C71.7405 61.5455 72.0719 60.2912 72.0697 59.0152V-5.93541C72.0798 -7.09792 71.8092 -8.24567 71.2811 -9.28099C70.753 -10.3163 69.9829 -11.2085 69.0364 -11.8817C68.0898 -12.5549 66.9949 -12.9892 65.8447 -13.1476C64.6946 -13.3059 63.5232 -13.1837 62.4304 -12.7913C44.1843 -6.28281 28.3928 5.7131 17.2173 21.5545C6.04172 37.3959 0.0282673 56.3086 0 75.7039C0.00975902 81.451 0.522212 87.1862 1.53148 92.8437C1.74802 93.9738 2.22807 95.0368 2.93254 95.946C3.637 96.8552 4.54597 97.585 5.5854 98.0758C6.54461 98.5286 7.58815 98.7745 8.64836 98.7975C9.91576 98.7898 11.1587 98.4475 12.2518 97.8052L68.4662 65.3299ZM57.6558 4.97991V54.8656L14.504 79.8536C14.4139 78.4102 14.4139 77.0571 14.4139 75.7039C14.4416 61.076 18.4913 46.7382 26.119 34.2628C33.7467 21.7873 44.6578 11.656 57.6558 4.97991Z" fill="#EEEEEE"/>
<path d="M175.989 28.9895C175.895 28.8885 175.832 28.7629 175.808 28.6275L175.445 28.1751C167.139 13.9964 155.253 2.23378 140.97 -5.94182C126.688 -14.1174 110.506 -18.4209 94.037 -18.4238C92.1114 -18.4238 90.2647 -17.6612 88.9031 -16.3037C87.5415 -14.9462 86.7766 -13.105 86.7766 -11.1852V71.5167L14.989 112.868C14.1523 113.329 13.4165 113.952 12.8249 114.7C12.2333 115.449 11.7978 116.308 11.5441 117.227C11.2905 118.146 11.2237 119.106 11.3477 120.051C11.4717 120.997 11.7841 121.907 12.2664 122.73V122.911L12.5386 123.364C23.0077 141.231 39.092 155.16 58.3019 162.995C77.5119 170.829 98.7764 172.132 118.804 166.703C138.832 161.273 156.506 149.413 169.091 132.958C181.677 116.503 188.471 96.3717 188.423 75.6789C188.445 59.2995 184.158 43.2008 175.989 28.9895Z" fill="#EEEEEE"/>
</svg>
