<svg width="50" height="50" viewBox="0 0 50 50" fill="none" xmlns="http://www.w3.org/2000/svg">
<rect x="2" y="26" width="13" height="24" rx="4" fill="#FFB1F3"/>
<rect x="19" y="15" width="14" height="35" rx="4" fill="#FB5BE1"/>
<rect x="37" y="2" width="13" height="48" rx="4" fill="#FFB1F3"/>
<circle cx="9" cy="9" r="9" fill="#434343"/>
<path fill-rule="evenodd" clip-rule="evenodd" d="M7.73025 5.27535L12.3014 6.41843C12.5819 6.48858 12.7448 6.7708 12.6653 7.0488L11.3697 11.579C11.2902 11.857 10.9983 12.0255 10.7178 11.9554C10.4373 11.8852 10.2744 11.603 10.3539 11.325L11.302 8.01L6.10013 11.0133C5.85396 11.1554 5.53918 11.0711 5.39705 10.8249C5.25492 10.5787 5.33926 10.2639 5.58544 10.1218L10.7873 7.11852L7.44233 6.28207C7.16183 6.21192 6.99888 5.92969 7.07839 5.6517C7.15789 5.3737 7.44974 5.2052 7.73025 5.27535Z" fill="white"/>
</svg>
