<svg width="62" height="62" viewBox="0 0 62 62" fill="none" xmlns="http://www.w3.org/2000/svg">
<circle cx="31" cy="31" r="31" fill="#8AE79F"/>
<line x1="36.5" y1="24.5" x2="17.5" y2="24.5" stroke="#469B59" stroke-width="3" stroke-linecap="round"/>
<line x1="24.5" y1="39.5" x2="43.5" y2="39.5" stroke="#469B59" stroke-width="3" stroke-linecap="round"/>
<path d="M44.1837 23.2594C44.6211 23.6563 44.6211 24.3438 44.1837 24.7406L36.1719 32.0094C35.5293 32.5924 34.5 32.1365 34.5 31.2688L34.5 16.7313C34.5 15.8636 35.5293 15.4076 36.1719 15.9906L44.1837 23.2594Z" fill="#469B59"/>
<path d="M16.8163 40.7406C16.3789 40.3438 16.3789 39.6562 16.8163 39.2594L24.8281 31.9906C25.4707 31.4076 26.5 31.8636 26.5 32.7312L26.5 47.2688C26.5 48.1364 25.4707 48.5924 24.8281 48.0094L16.8163 40.7406Z" fill="#469B59"/>
</svg>
