<svg width="63" height="68" viewBox="0 0 63 68" fill="none" xmlns="http://www.w3.org/2000/svg">
<rect width="63" height="68" rx="12" fill="#CDF1F9"/>
<path d="M56.9722 34.0153C56.9722 34.5647 56.7531 35.0915 56.3631 35.48C55.9731 35.8685 55.4441 36.0867 54.8926 36.0867H32.0173C31.4658 36.0867 30.9368 35.8685 30.5469 35.48C30.1569 35.0915 29.9378 34.5647 29.9378 34.0153C29.9378 33.466 30.1569 32.9391 30.5469 32.5507C30.9368 32.1622 31.4658 31.944 32.0173 31.944H54.8926C55.4441 31.944 55.9731 32.1622 56.3631 32.5507C56.7531 32.9391 56.9722 33.466 56.9722 34.0153ZM32.0173 19.5159H54.8926C55.4441 19.5159 55.9731 19.2976 56.3631 18.9092C56.7531 18.5207 56.9722 17.9939 56.9722 17.4445C56.9722 16.8952 56.7531 16.3683 56.3631 15.9799C55.9731 15.5914 55.4441 15.3732 54.8926 15.3732H32.0173C31.4658 15.3732 30.9368 15.5914 30.5469 15.9799C30.1569 16.3683 29.9378 16.8952 29.9378 17.4445C29.9378 17.9939 30.1569 18.5207 30.5469 18.9092C30.9368 19.2976 31.4658 19.5159 32.0173 19.5159ZM54.8926 48.5148H32.0173C31.4658 48.5148 30.9368 48.733 30.5469 49.1215C30.1569 49.5099 29.9378 50.0368 29.9378 50.5861C29.9378 51.1355 30.1569 51.6623 30.5469 52.0508C30.9368 52.4393 31.4658 52.6575 32.0173 52.6575H54.8926C55.4441 52.6575 55.9731 52.4393 56.3631 52.0508C56.7531 51.6623 56.9722 51.1355 56.9722 50.5861C56.9722 50.0368 56.7531 49.5099 56.3631 49.1215C55.9731 48.733 55.4441 48.5148 54.8926 48.5148ZM21.2556 11.7742L13.6391 18.765L10.5458 15.9169C10.1368 15.56 9.60379 15.3768 9.06088 15.4066C8.51796 15.4364 8.00836 15.6768 7.64125 16.0763C7.27414 16.4758 7.07873 17.0027 7.09688 17.544C7.11504 18.0852 7.34531 18.5979 7.73837 18.9721L12.2354 23.1148C12.6187 23.4644 13.1195 23.6584 13.6391 23.6586C14.1669 23.6599 14.6763 23.4661 15.0688 23.1148L24.063 14.8294C24.2712 14.6477 24.4409 14.4263 24.5622 14.1784C24.6834 13.9304 24.7537 13.6609 24.7689 13.3855C24.7841 13.1101 24.744 12.8345 24.6509 12.5748C24.5577 12.3151 24.4135 12.0765 24.2265 11.8731C24.0396 11.6696 23.8137 11.5054 23.5622 11.3901C23.3107 11.2747 23.0386 11.2106 22.7619 11.2014C22.4852 11.1921 22.2094 11.2381 21.9507 11.3364C21.6921 11.4348 21.4557 11.5836 21.2556 11.7742ZM21.2556 28.345L13.6391 35.3358L10.5458 32.4877C10.3456 32.2971 10.1093 32.1483 9.85062 32.0499C9.59195 31.9516 9.31616 31.9057 9.03944 31.9149C8.76271 31.9241 8.49061 31.9882 8.23911 32.1036C7.98761 32.2189 7.76176 32.3831 7.57482 32.5866C7.38789 32.79 7.24362 33.0286 7.15048 33.2883C7.05734 33.548 7.01721 33.8236 7.03245 34.099C7.04768 34.3744 7.11797 34.644 7.23919 34.8919C7.36041 35.1399 7.53012 35.3612 7.73837 35.543L12.2354 39.6857C12.6187 40.0352 13.1195 40.2292 13.6391 40.2294C14.1669 40.2307 14.6763 40.0369 15.0688 39.6857L24.063 31.4003C24.2712 31.2185 24.4409 30.9972 24.5622 30.7492C24.6834 30.5013 24.7537 30.2317 24.7689 29.9563C24.7841 29.6809 24.744 29.4053 24.6509 29.1456C24.5577 28.8859 24.4135 28.6473 24.2265 28.4439C24.0396 28.2404 23.8137 28.0762 23.5622 27.9609C23.3107 27.8455 23.0386 27.7814 22.7619 27.7722C22.4852 27.7629 22.2094 27.8089 21.9507 27.9072C21.6921 28.0056 21.4557 28.1544 21.2556 28.345ZM21.2556 44.9158L13.6391 51.9066L10.5458 49.0585C10.3456 48.868 10.1093 48.7191 9.85062 48.6208C9.59195 48.5224 9.31616 48.4765 9.03944 48.4857C8.76271 48.4949 8.49061 48.559 8.23911 48.6744C7.98761 48.7897 7.76176 48.9539 7.57482 49.1574C7.38789 49.3608 7.24362 49.5994 7.15048 49.8591C7.05734 50.1188 7.01721 50.3944 7.03245 50.6698C7.04768 50.9452 7.11797 51.2148 7.23919 51.4627C7.36041 51.7107 7.53012 51.932 7.73837 52.1138L12.2354 56.2565C12.6187 56.606 13.1195 56.8 13.6391 56.8002C14.1669 56.8015 14.6763 56.6077 15.0688 56.2565L24.063 47.9711C24.456 47.5968 24.6863 47.0842 24.7045 46.5429C24.7226 46.0016 24.5272 45.4747 24.1601 45.0752C23.793 44.6757 23.2834 44.4353 22.7405 44.4055C22.1976 44.3757 21.6645 44.5589 21.2556 44.9158Z" fill="#27CAEA"/>
</svg>
