<svg width="120" height="117" viewBox="0 0 120 117" fill="none" xmlns="http://www.w3.org/2000/svg">
<rect width="120" height="117" rx="30" fill="url(#paint0_linear_20_7141)"/>
<path d="M90.4924 51.3429L76.0214 34.702C75.8272 34.4811 75.5885 34.3042 75.3212 34.1832C75.0539 34.0622 74.7641 33.9997 74.471 34H45.5291C45.2359 33.9997 44.9461 34.0622 44.6788 34.1832C44.4115 34.3042 44.1728 34.4811 43.9786 34.702L29.5076 51.3429C29.1714 51.7354 28.9908 52.2388 29.0004 52.7569C29.0099 53.2749 29.2089 53.7713 29.5593 54.151L58.5012 85.3526C58.6943 85.5571 58.9268 85.72 59.1845 85.8313C59.4421 85.9426 59.7196 86 60 86C60.2804 86 60.5579 85.9426 60.8155 85.8313C61.0732 85.72 61.3057 85.5571 61.4988 85.3526L90.4407 54.151C90.7911 53.7713 90.9901 53.2749 90.9996 52.7569C91.0092 52.2388 90.8286 51.7354 90.4924 51.3429ZM84.3939 50.6408H73.6957L64.1862 38.1602H73.5407L84.3939 50.6408ZM45.9167 54.801L53.824 74.198L35.8128 54.801H45.9167ZM74.0833 54.801H84.1872L66.176 74.198L74.0833 54.801ZM46.4593 38.1602H55.8138L46.3043 50.6408H35.6061L46.4593 38.1602Z" fill="white"/>
<defs>
<linearGradient id="paint0_linear_20_7141" x1="-37.6684" y1="-35.3295" x2="161.347" y2="1.74518" gradientUnits="userSpaceOnUse">
<stop offset="0.0963806" stop-color="#C8CCFF"/>
<stop offset="1" stop-color="#ABFCFF"/>
</linearGradient>
</defs>
</svg>
