<svg width="120" height="117" viewBox="0 0 120 117" fill="none" xmlns="http://www.w3.org/2000/svg">
<rect width="120" height="117" rx="30" fill="url(#paint0_linear_20_7123)"/>
<path d="M85.9995 42.8125C85.7012 42.9532 85.4336 43.1515 85.2123 43.396C84.9909 43.6405 84.8201 43.9264 84.7097 44.2372C84.5993 44.548 84.5515 44.8776 84.5691 45.207C84.5867 45.5363 84.6692 45.859 84.812 46.1563C87.7349 52.2756 88.2935 59.2591 86.3807 65.7653C84.468 72.2715 80.2186 77.8415 74.449 81.4053C68.6794 84.9691 61.7964 86.2753 55.1223 85.0731C48.4482 83.8709 42.4536 80.2451 38.2901 74.8921C34.1267 69.539 32.088 62.8364 32.5656 56.0717C33.0433 49.307 36.0036 42.9574 40.878 38.2425C45.7523 33.5277 52.1969 30.7802 58.9738 30.5277C65.7506 30.2753 72.3817 32.5358 77.5933 36.875L70.4683 44C66.9237 41.3866 62.5241 40.2056 58.1472 40.6927C53.7703 41.1799 49.738 43.2993 46.8548 46.6282C43.9716 49.9571 42.4495 54.2507 42.5922 58.6523C42.7349 63.0538 44.5318 67.2398 47.6245 70.375C50.1324 72.882 53.3427 74.568 56.8302 75.2097C60.3177 75.8513 63.9179 75.4183 67.1538 73.9681C70.3898 72.5179 73.1088 70.1188 74.9507 67.0886C76.7927 64.0585 77.6706 60.5403 77.4683 57C77.4524 56.6729 77.3716 56.3522 77.2305 56.0566C77.0894 55.761 76.891 55.4965 76.6467 55.2784C76.4024 55.0602 76.1171 54.8929 75.8075 54.7861C75.4979 54.6793 75.1701 54.6352 74.8433 54.6563C74.5148 54.6723 74.1928 54.7529 73.8956 54.8936C73.5983 55.0343 73.3318 55.2322 73.1112 55.476C72.8906 55.7199 72.7202 56.0048 72.6099 56.3146C72.4996 56.6244 72.4515 56.9529 72.4683 57.2813C72.604 59.5981 72.092 61.9069 70.9897 63.9492C69.8874 65.9915 68.2383 67.6866 66.2271 68.8446C64.2159 70.0027 61.9221 70.578 59.6024 70.5061C57.2827 70.4342 55.0289 69.7179 53.0933 68.4375L60.5933 60.9375L72.3745 49.1563L91.7808 29.7813C92.1795 29.2955 92.3832 28.6789 92.3524 28.0512C92.3215 27.4236 92.0583 26.8299 91.614 26.3855C91.1697 25.9412 90.576 25.678 89.9483 25.6472C89.3207 25.6164 88.704 25.8201 88.2183 26.2188L81.1558 33.3125C74.9364 27.9888 66.937 25.2084 58.7566 25.5271C50.5761 25.8457 42.8172 29.2399 37.0308 35.0313C34.0091 38.0445 31.6117 41.6244 29.9759 45.5658C28.3401 49.5072 27.498 53.7327 27.498 58C27.498 62.2674 28.3401 66.4928 29.9759 70.4342C31.6117 74.3756 34.0091 77.9555 37.0308 80.9688C40.0441 83.9905 43.624 86.3879 47.5653 88.0237C51.5067 89.6595 55.7322 90.5015 59.9995 90.5015C64.2669 90.5015 68.4923 89.6595 72.4337 88.0237C76.3751 86.3879 79.955 83.9905 82.9683 80.9688C87.7215 76.2212 90.8866 70.1174 92.0282 63.4971C93.1699 56.8768 92.2319 50.0653 89.3433 44C89.2026 43.7017 89.0044 43.4341 88.7598 43.2127C88.5153 42.9914 88.2294 42.8206 87.9186 42.7102C87.6078 42.5998 87.2782 42.552 86.9489 42.5696C86.6195 42.5872 86.2969 42.6697 85.9995 42.8125Z" fill="white"/>
<defs>
<linearGradient id="paint0_linear_20_7123" x1="-43.8818" y1="-37.6589" x2="153.009" y2="-5.01828" gradientUnits="userSpaceOnUse">
<stop offset="0.0963806" stop-color="#A2FBFF"/>
<stop offset="0.550589" stop-color="#CCD0FF"/>
<stop offset="1" stop-color="#FFCCE0"/>
</linearGradient>
</defs>
</svg>
