<svg width="120" height="117" viewBox="0 0 120 117" fill="none" xmlns="http://www.w3.org/2000/svg">
<rect width="120" height="117" rx="30" fill="url(#paint0_linear_20_7132)"/>
<path d="M91.8222 58.16C91.7435 57.95 89.5118 53.015 84.5758 48.0538C77.9858 41.4913 69.663 38 60.5 38C51.337 38 43.0142 41.4913 36.4242 48.0538C31.4882 53.015 29.2565 57.95 29.1778 58.16C29.0606 58.4245 29 58.7107 29 59C29 59.2893 29.0606 59.5755 29.1778 59.84C29.2565 60.05 31.4882 64.985 36.4242 69.9462C43.0142 76.5087 51.337 80 60.5 80C69.663 80 77.9858 76.5087 84.5758 69.9462C89.5118 64.985 91.7435 60.05 91.8222 59.84C91.9394 59.5755 92 59.2893 92 59C92 58.7107 91.9394 58.4245 91.8222 58.16ZM60.5 49.55C62.3694 49.55 64.1968 50.1042 65.7511 51.1426C67.3055 52.181 68.5169 53.6569 69.2323 55.3836C69.9477 57.1104 70.1349 59.0105 69.7702 60.8436C69.4055 62.6767 68.5053 64.3605 67.1834 65.6822C65.8616 67.0038 64.1774 67.9038 62.344 68.2684C60.5105 68.6331 58.61 68.4459 56.883 67.7307C55.1559 67.0154 53.6797 65.8042 52.6411 64.2501C51.6025 62.6961 51.0482 60.869 51.0482 59C51.0482 56.4937 52.044 54.0901 53.8166 52.3178C55.5891 50.5456 57.9932 49.55 60.5 49.55Z" fill="white"/>
<defs>
<linearGradient id="paint0_linear_20_7132" x1="-7.37836" y1="-23.2941" x2="157.923" y2="25.7575" gradientUnits="userSpaceOnUse">
<stop offset="0.0963806" stop-color="#FFE1BB"/>
<stop offset="1" stop-color="#FFBDD7"/>
</linearGradient>
</defs>
</svg>
