<svg width="22" height="23" viewBox="0 0 22 23" fill="none" xmlns="http://www.w3.org/2000/svg">
<path d="M19.8352 0.812988H1.8723C0.890775 0.812988 0.0332031 1.52666 0.0332031 2.50686V20.6991C0.0332031 21.6847 0.890775 22.5629 1.8723 22.5629H19.8299C20.8167 22.5629 21.5566 21.6788 21.5566 20.6991V2.50686C21.5623 1.52666 20.8167 0.812988 19.8352 0.812988ZM6.70497 18.9426H3.62155V9.25468H6.70497V18.9426ZM5.26992 7.7817H5.24782C4.26101 7.7817 3.62203 7.03939 3.62203 6.11016C3.62203 5.16395 4.27782 4.43911 5.28673 4.43911C6.29564 4.43911 6.913 5.15861 6.9351 6.11016C6.93462 7.03939 6.29564 7.7817 5.26992 7.7817ZM17.974 18.9426H14.8906V13.6454C14.8906 12.3764 14.4419 11.5093 13.3263 11.5093C12.474 11.5093 11.9695 12.0919 11.7452 12.6594C11.6611 12.8633 11.6385 13.141 11.6385 13.4246V18.9426H8.55511V9.25468H11.6385V10.6029C12.0873 9.95718 12.7882 9.02796 14.4193 9.02796C16.4433 9.02796 17.9745 10.3762 17.9745 13.2828L17.974 18.9426Z" fill="#D2D2D2"/>
</svg>
