<svg width="23" height="23" viewBox="0 0 23 23" fill="none" xmlns="http://www.w3.org/2000/svg">
<path d="M15.6018 2.76323C16.8178 2.76676 17.983 3.23805 18.8428 4.07417C19.7026 4.91028 20.1873 6.04329 20.1909 7.22573V16.1498C20.1873 17.3322 19.7026 18.4652 18.8428 19.3013C17.983 20.1375 16.8178 20.6087 15.6018 20.6123H6.4245C5.2085 20.6087 4.04335 20.1375 3.1835 19.3013C2.32366 18.4652 1.83899 17.3322 1.83536 16.1498V7.22573C1.83899 6.04329 2.32366 4.91028 3.1835 4.07417C4.04335 3.23805 5.2085 2.76676 6.4245 2.76323H15.6018ZM15.6018 0.978516H6.4245C2.89095 0.978516 0 3.78969 0 7.22573V16.1498C0 19.5858 2.89095 22.397 6.4245 22.397H15.6018C19.1353 22.397 22.0263 19.5858 22.0263 16.1498V7.22573C22.0263 3.78969 19.1353 0.978516 15.6018 0.978516Z" fill="#D2D2D2"/>
<path d="M16.9777 7.22614C16.7055 7.22614 16.4393 7.14763 16.2129 7.00053C15.9865 6.85344 15.8101 6.64437 15.7059 6.39976C15.6017 6.15516 15.5744 5.886 15.6275 5.62632C15.6807 5.36665 15.8118 5.12813 16.0043 4.94091C16.1968 4.7537 16.4421 4.6262 16.7092 4.57455C16.9762 4.5229 17.253 4.54941 17.5045 4.65073C17.7561 4.75205 17.9711 4.92363 18.1224 5.14377C18.2736 5.36391 18.3544 5.62272 18.3544 5.88748C18.3548 6.06338 18.3194 6.23763 18.2504 6.40021C18.1813 6.56279 18.0799 6.71052 17.952 6.8349C17.8241 6.95928 17.6722 7.05787 17.505 7.12501C17.3378 7.19215 17.1586 7.22652 16.9777 7.22614ZM11.0124 8.11826C11.7385 8.11826 12.4483 8.32763 13.0521 8.71989C13.6558 9.11216 14.1263 9.6697 14.4042 10.322C14.6821 10.9743 14.7548 11.6921 14.6131 12.3846C14.4715 13.0771 14.1218 13.7132 13.6084 14.2125C13.0949 14.7117 12.4408 15.0517 11.7287 15.1895C11.0165 15.3272 10.2783 15.2565 9.60752 14.9863C8.9367 14.7161 8.36333 14.2586 7.95993 13.6715C7.55654 13.0844 7.34122 12.3942 7.34122 11.6882C7.34226 10.7417 7.72939 9.83424 8.41765 9.16497C9.10591 8.49571 10.0391 8.11927 11.0124 8.11826ZM11.0124 6.33354C9.92334 6.33354 8.8587 6.64758 7.95315 7.23596C7.0476 7.82433 6.3418 8.66061 5.92502 9.63904C5.50825 10.6175 5.3992 11.6941 5.61167 12.7328C5.82414 13.7715 6.34859 14.7256 7.1187 15.4744C7.88881 16.2233 8.86999 16.7333 9.93816 16.9399C11.0063 17.1465 12.1135 17.0405 13.1197 16.6352C14.1259 16.2299 14.9859 15.5436 15.591 14.663C16.1961 13.7825 16.519 12.7472 16.519 11.6882C16.519 10.268 15.9389 8.90606 14.9062 7.90187C13.8735 6.89769 12.4729 6.33354 11.0124 6.33354Z" fill="#D2D2D2"/>
</svg>
