<svg width="27" height="27" viewBox="0 0 27 27" fill="none" xmlns="http://www.w3.org/2000/svg">
<path d="M11.5979 1.8541C12.1966 0.0114799 14.8034 0.0114799 15.4021 1.8541L17.2045 7.40122C17.4722 8.22527 18.2401 8.78319 19.1066 8.78319H24.9392C26.8766 8.78319 27.6822 11.2624 26.1147 12.4012L21.3961 15.8295C20.6951 16.3388 20.4018 17.2415 20.6695 18.0656L22.4719 23.6127C23.0706 25.4553 20.9617 26.9876 19.3942 25.8488L14.6756 22.4205C13.9746 21.9112 13.0254 21.9112 12.3244 22.4205L7.60577 25.8488C6.03834 26.9876 3.92938 25.4553 4.52809 23.6127L6.33045 18.0656C6.5982 17.2415 6.30489 16.3388 5.60391 15.8295L0.885251 12.4012C-0.682177 11.2624 0.123375 8.78319 2.06082 8.78319H7.89341C8.75986 8.78319 9.52777 8.22527 9.79552 7.40122L11.5979 1.8541Z" fill="#FFC839"/>
</svg>
