<svg width="23" height="18" viewBox="0 0 23 18" fill="none" xmlns="http://www.w3.org/2000/svg">
<path d="M22.0345 2.1393C21.2375 2.48901 20.3942 2.7194 19.5313 2.8232C20.4382 2.28698 21.1201 1.43509 21.4493 0.427312C20.5919 0.933574 19.6555 1.28879 18.6801 1.47775C18.2693 1.04306 17.7754 0.697254 17.2281 0.461348C16.6809 0.225443 16.0919 0.104366 15.497 0.105476C13.088 0.105476 11.1386 2.04543 11.1386 4.43685C11.1369 4.76949 11.1746 5.10113 11.251 5.42471C9.52364 5.34293 7.83218 4.89796 6.28487 4.11826C4.73755 3.33855 3.36844 2.24129 2.26513 0.896656C1.87806 1.55558 1.67336 2.30739 1.67242 3.07352C1.67242 4.57542 2.44839 5.90299 3.6201 6.68076C2.92589 6.66412 2.24592 6.47858 1.63789 6.1399V6.19353C1.63789 8.29441 3.14292 10.0422 5.13486 10.44C4.76028 10.5408 4.37428 10.5919 3.98661 10.592C3.71154 10.5924 3.43709 10.5655 3.16726 10.5115C3.72102 12.2324 5.33273 13.484 7.24189 13.5198C5.69056 14.7271 3.78592 15.3796 1.82735 15.3748C1.47969 15.3743 1.13236 15.3534 0.787109 15.3122C2.77958 16.597 5.09566 17.2765 7.45968 17.27C15.4877 17.27 19.8735 10.6679 19.8735 4.94195C19.8735 4.75421 19.8686 4.56648 19.8598 4.38321C20.711 3.77175 21.4475 3.01188 22.0345 2.1393Z" fill="#D2D2D2"/>
</svg>
