<svg width="1158" height="208" viewBox="0 0 1158 208" fill="none" xmlns="http://www.w3.org/2000/svg">
<g filter="url(#filter0_d_20_7058)">
<path d="M7 142.791C32.3333 180.624 92.4003 217.974 196.5 142.791C295.5 71.2904 336.5 97.7904 393.5 149.29C430 188.29 530.5 232.79 612.396 125.633C706.536 2.45597 815 89.9573 858 142.791C910.833 204.527 1041.8 265.5 1143 15.4999" stroke="url(#paint0_linear_20_7058)" stroke-width="2" shape-rendering="crispEdges"/>
</g>
<ellipse cx="136.5" cy="175.5" rx="6.5" ry="6.5" transform="rotate(-90 136.5 175.5)" fill="#E2E4FF"/>
<ellipse cx="5.5" cy="139.5" rx="5.5" ry="5.5" transform="rotate(-90 5.5 139.5)" fill="#F4F5FF"/>
<ellipse cx="293.5" cy="99.5" rx="7.5" ry="7.5" transform="rotate(-90 293.5 99.5)" fill="#CACEFF"/>
<circle cx="493.5" cy="191.5" r="8.5" transform="rotate(-90 493.5 191.5)" fill="#ABB2FF"/>
<circle cx="719.5" cy="62.5" r="9.5" transform="rotate(-90 719.5 62.5)" fill="#8B94FF"/>
<ellipse cx="959.5" cy="196.5" rx="11.5" ry="11.5" transform="rotate(-90 959.5 196.5)" fill="#7782FF"/>
<circle cx="1139.5" cy="18.5" r="15" transform="rotate(-90 1139.5 18.5)" fill="white" stroke="#7782FF" stroke-width="7"/>
<defs>
<filter id="filter0_d_20_7058" x="2.16895" y="15.1245" width="1145.76" height="191.296" filterUnits="userSpaceOnUse" color-interpolation-filters="sRGB">
<feFlood flood-opacity="0" result="BackgroundImageFix"/>
<feColorMatrix in="SourceAlpha" type="matrix" values="0 0 0 0 0 0 0 0 0 0 0 0 0 0 0 0 0 0 127 0" result="hardAlpha"/>
<feOffset dy="4"/>
<feGaussianBlur stdDeviation="2"/>
<feComposite in2="hardAlpha" operator="out"/>
<feColorMatrix type="matrix" values="0 0 0 0 0 0 0 0 0 0 0 0 0 0 0 0 0 0 0.25 0"/>
<feBlend mode="normal" in2="BackgroundImageFix" result="effect1_dropShadow_20_7058"/>
<feBlend mode="normal" in="SourceGraphic" in2="effect1_dropShadow_20_7058" result="shape"/>
</filter>
<linearGradient id="paint0_linear_20_7058" x1="870.5" y1="127.29" x2="-53" y2="153.79" gradientUnits="userSpaceOnUse">
<stop stop-color="#7782FF"/>
<stop offset="1" stop-color="#7782FF" stop-opacity="0"/>
</linearGradient>
</defs>
</svg>
