<svg width="27" height="20" viewBox="0 0 27 20" fill="none" xmlns="http://www.w3.org/2000/svg">
<path d="M26.1205 4.38321C26.1205 2.15671 24.4569 0.365613 22.4013 0.365613C19.617 0.237466 16.7774 0.187988 13.8755 0.187988H12.9708C10.0759 0.187988 7.23129 0.237466 4.44696 0.366108C2.39641 0.366108 0.732851 2.1671 0.732851 4.3936C0.607205 6.15452 0.553931 7.91593 0.556946 9.67734C0.55192 11.4387 0.60888 13.2018 0.727825 14.9665C0.727825 17.193 2.39139 18.999 4.44194 18.999C7.36699 19.1326 10.3674 19.1919 13.4181 19.187C16.4738 19.1969 19.4659 19.1342 22.3943 18.999C24.4499 18.999 26.1134 17.193 26.1134 14.9665C26.2341 13.2002 26.2893 11.4388 26.2843 9.67239C26.2957 7.91098 26.2411 6.14792 26.1205 4.38321ZM10.9605 14.5311V4.80872L18.248 9.66744L10.9605 14.5311Z" fill="#D2D2D2"/>
</svg>
